<?xml version="1.0" encoding="utf-8"?>
<!-- Generator: Adobe Illustrator 26.4.1, SVG Export Plug-In . SVG Version: 6.00 Build 0)  -->
<svg version="1.1" id="Layer_1" xmlns="http://www.w3.org/2000/svg" xmlns:xlink="http://www.w3.org/1999/xlink" x="0px" y="0px"
	 viewBox="0 0 800 800" style="enable-background:new 0 0 800 800;" xml:space="preserve">
<style type="text/css">
	.st0{fill-rule:evenodd;clip-rule:evenodd;}
	.st1{fill-rule:evenodd;clip-rule:evenodd;fill:#FFFFFF;}
	.st2{fill-rule:evenodd;clip-rule:evenodd;fill:#EB7D29;}
</style>
<rect x="200" y="200" class="st0" width="400" height="400"/>
<rect x="471.4" y="300" class="st1" width="35" height="200"/>
<path class="st1" d="M368.4,300h-39l-74,200h35.1l14-39.1h88.5l13.7,39.1H444L368.4,300z M314.3,433.3l34.3-99.8l34.9,99.8H314.3z"
	/>
<g>
	<rect x="633.3" y="500" class="st2" width="66.7" height="66.7"/>
	<rect x="233.3" y="633.3" class="st2" width="66.7" height="66.7"/>
	<rect x="366.7" y="633.3" class="st2" width="66.7" height="66.7"/>
	<rect x="233.3" y="100" class="st2" width="66.7" height="66.7"/>
	<rect x="500" y="633.3" class="st2" width="66.7" height="66.7"/>
	<rect x="366.7" y="100" class="st2" width="66.7" height="66.7"/>
	<rect x="500" y="100" class="st2" width="66.7" height="66.7"/>
	<rect x="633.3" y="366.7" class="st2" width="66.7" height="66.7"/>
	<rect x="100" y="500" class="st2" width="66.7" height="66.7"/>
	<rect x="633.3" y="233.3" class="st2" width="66.7" height="66.7"/>
	<rect x="100" y="366.7" class="st2" width="66.7" height="66.7"/>
	<rect x="100" y="233.3" class="st2" width="66.7" height="66.7"/>
</g>
</svg>
