<?xml version="1.0" encoding="utf-8"?>
<!-- Generator: Adobe Illustrator 26.4.1, SVG Export Plug-In . SVG Version: 6.00 Build 0)  -->
<svg version="1.1" id="Layer_1" xmlns="http://www.w3.org/2000/svg" xmlns:xlink="http://www.w3.org/1999/xlink" x="0px" y="0px"
	 viewBox="0 0 56 56" style="enable-background:new 0 0 56 56;" xml:space="preserve">
<style type="text/css">
	.st0{fill:#2E3436;}
	.st1{fill:#EB7D29;}
</style>
<path class="st0" d="M23.7,5.3c-10.1,0-18.4,8.3-18.4,18.4s8.3,18.4,18.4,18.4c0.5,0,1,0,1.4-0.1v-5.7c-0.5,0.1-0.9,0.1-1.4,0.1
	c-7.1,0-12.8-5.7-12.8-12.8S16.7,11,23.7,11s12.8,5.7,12.8,12.8c0,0.5,0,1-0.1,1.4h5.7c0-0.5,0.1-0.9,0.1-1.4
	C42.2,13.6,33.9,5.3,23.7,5.3z"/>
<path class="st0" d="M23.7,13.8c-0.8,0-1.4,0.6-1.4,1.4v7.1h-4.3c-0.8,0-1.4,0.6-1.4,1.4s0.6,1.4,1.4,1.4h5.7c0.8,0,1.4-0.6,1.4-1.4
	v-8.5C25.2,14.5,24.5,13.8,23.7,13.8z"/>
<polygon class="st1" points="36.5,28 36.5,36.5 28,36.5 28,42.2 36.5,42.2 36.5,50.7 42.2,50.7 42.2,42.2 50.7,42.2 50.7,36.5 
	42.2,36.5 42.2,28 "/>
</svg>
