<?xml version="1.0" encoding="utf-8"?>
<!-- Generator: Adobe Illustrator 26.4.1, SVG Export Plug-In . SVG Version: 6.00 Build 0)  -->
<svg version="1.1" id="Layer_1" xmlns="http://www.w3.org/2000/svg" xmlns:xlink="http://www.w3.org/1999/xlink" x="0px" y="0px"
	 viewBox="0 0 800 800" style="enable-background:new 0 0 800 800;" xml:space="preserve">
<g id="SVGRepo_bgCarrier">
</g>
<g id="SVGRepo_tracerCarrier">
</g>
<g>
	<path d="M391.9,5.7C174.1,5.7-2.4,182.2-2.4,400s176.6,394.3,394.3,394.3S786.2,617.8,786.2,400S609.7,5.7,391.9,5.7z M546.8,582.6
		c-13.7,21.2-33.7,38.1-59.9,50.6c-21.4,10.2-46.6,16.3-75.5,18.1v52.9h-39v-52.9c-26.9-1.7-50.7-7.1-71.4-16.3
		c-25.4-11.3-45.4-26.9-59.9-47.1c-14.5-20.1-22.7-43.5-24.6-70.1h60.9c1.6,18.4,7.8,33.6,18.7,45.5c10.9,12,24.6,20.8,41.4,26.6
		c11.1,3.8,22.8,6.4,35.1,7.7V417.8l-19-5.4c-38-10.9-68.1-26.5-90.3-46.8c-22.2-20.3-33.3-46.8-33.3-79.6
		c0-27.3,7.4-51.1,22.2-71.4c14.8-20.4,34.8-36.2,59.9-47.5c18.5-8.4,38.7-13.6,60.5-15.8V95.7h39v54.7c25.2,1.5,48.1,7,68.5,16.3
		c24.4,11.2,43.8,26.4,58.1,45.8c14.3,19.3,21.9,41.3,22.7,65.8h-57c-2.9-24.1-14.4-42.8-34.7-56.1c-16.2-10.7-35.4-17-57.5-19.2
		v169l19,5.1c12.7,3.3,26.8,7.9,42.4,13.8c15.6,5.9,30.6,13.8,44.9,23.9c14.3,10.1,26.2,22.9,35.5,38.6c9.3,15.7,14,34.9,14,57.8
		C567.3,537.6,560.5,561.3,546.8,582.6z"/>
	<path d="M461.1,446.1c-14.7-6.3-30.7-11.9-47.8-16.6l-1.9-0.5v168.8c14.7-1.6,28.2-4.9,40.6-10c17.9-7.4,32.1-17.7,42.6-30.9
		c10.5-13.2,15.7-28.7,15.7-46.5c0-16.2-4.5-29.3-13.5-39.5C487.7,460.7,475.8,452.5,461.1,446.1z"/>
	<path d="M337.8,212.7c-16.1,7-28.6,16.6-37.6,28.8c-9,12.2-13.4,26.1-13.4,41.6c0,13,3.1,24.1,9.4,33.4c6.3,9.3,14.3,17,24.1,23.1
		c9.8,6.1,20.1,11.1,30.9,15c7.5,2.7,14.5,5,21.2,7V203.5C359.7,205.1,348.2,208.2,337.8,212.7z"/>
</g>
</svg>
