<?xml version="1.0" encoding="utf-8"?>
<!-- Generator: Adobe Illustrator 26.4.1, SVG Export Plug-In . SVG Version: 6.00 Build 0)  -->
<svg version="1.1" id="Layer_1" xmlns="http://www.w3.org/2000/svg" xmlns:xlink="http://www.w3.org/1999/xlink" x="0px" y="0px"
	 viewBox="0 0 800 800" style="enable-background:new 0 0 800 800;" xml:space="preserve">
<style type="text/css">
	.st0{fill:#EB7D29;}
</style>
<path class="st0" d="M438.1,725c-4.5,0-9.1-1.2-13.2-3.8c-42.4-26.5-77.9-63.4-102.5-106.8c-25.5-44.8-38.9-96-38.9-147.8
	c0-64.3,52.3-116.6,116.6-116.6c64.3,0,116.6,52.3,116.6,116.6c0,36.7,29.9,66.6,66.6,66.6c36.7,0,66.6-29.9,66.6-66.6
	c0-137.8-112.1-249.9-249.8-249.9c-137.7,0-249.8,112.1-249.8,249.9c0,31.1,3.4,62.4,10.2,93.2c3,13.5-5.6,26.8-19.1,29.8
	c-13.5,3-26.8-5.6-29.8-19.1c-7.5-34.3-11.3-69.3-11.3-103.9c0-80.1,31.2-155.4,87.8-212.1c56.6-56.6,131.9-87.8,212-87.8
	c80.1,0,155.4,31.2,212,87.8c56.6,56.6,87.8,132,87.8,212.1c0,64.3-52.3,116.6-116.6,116.6c-64.3,0-116.6-52.3-116.6-116.6
	c0-36.7-29.9-66.6-66.6-66.6c-36.7,0-66.6,29.9-66.6,66.6c0,86.8,44.1,166.2,117.9,212.2c11.7,7.3,15.3,22.7,8,34.4
	C454.6,720.8,446.4,725,438.1,725z"/>
<path d="M283,701.6c-7.9,0-15.6-3.7-20.5-10.7c-46.3-66.1-70.8-143.7-70.8-224.4c0-114.8,93.4-208.3,208.2-208.3
	c114.8,0,208.2,93.4,208.2,208.3c0,13.8-11.2,25-25,25c-13.8,0-25-11.2-25-25c0-87.3-71-158.3-158.2-158.3
	c-87.2,0-158.2,71-158.2,158.3c0,70.4,21.3,138.1,61.7,195.7c7.9,11.3,5.2,26.9-6.1,34.8C293,700.2,288,701.6,283,701.6z"/>
<path d="M583.2,674.8c-114.8,0-208.2-93.4-208.2-208.3c0-13.8,11.2-25,25-25s25,11.2,25,25c0,87.3,71,158.3,158.2,158.3
	c1.5,0,3.3-0.1,5.3-0.3c1-0.1,2.1-0.1,3.1-0.2c13.8-0.8,25.6,9.8,26.4,23.6c0.8,13.8-9.8,25.6-23.6,26.3c-0.9,0-1.7,0.1-2.6,0.2
	C589.3,674.6,586.4,674.8,583.2,674.8z"/>
<path d="M655.8,240.9c-6.9,0-13.8-2.9-18.8-8.5C576.9,164.2,490.5,125,400,125c-90.5,0-176.9,39.1-237,107.4
	c-9.1,10.4-24.9,11.4-35.3,2.2c-10.4-9.1-11.4-24.9-2.2-35.3c34-38.7,74.9-69.2,121.3-90.7C295,86.3,346.5,75,400,75
	c53.5,0,105,11.3,153.2,33.7c46.5,21.5,87.3,52.1,121.3,90.7c9.1,10.4,8.1,26.2-2.2,35.3C667.5,238.8,661.7,240.9,655.8,240.9z"/>
</svg>
