<?xml version="1.0" encoding="utf-8"?>
<!-- Generator: Adobe Illustrator 26.4.1, SVG Export Plug-In . SVG Version: 6.00 Build 0)  -->
<svg version="1.1" id="Layer_1" xmlns="http://www.w3.org/2000/svg" xmlns:xlink="http://www.w3.org/1999/xlink" x="0px" y="0px"
	 viewBox="0 0 800 800" style="enable-background:new 0 0 800 800;" xml:space="preserve">
<style type="text/css">
	.st0{fill:#EB7D29;}
</style>
<polygon points="560,26.7 578.9,7.8 571,0 560,0 "/>
<polygon points="720,186.7 746.7,186.7 746.7,175.6 738.9,167.8 "/>
<rect x="133.3" y="746.7" width="533.3" height="53.3"/>
<rect x="53.3" y="80" width="53.3" height="640"/>
<rect x="133.3" y="0" width="426.7" height="53.3"/>
<rect x="693.3" y="186.7" width="53.3" height="533.3"/>
<rect x="613.3" y="-6.5" transform="matrix(0.7071 -0.7071 0.7071 0.7071 112.0271 483.7905)" width="53.3" height="226.3"/>
<path d="M133.3,746.7c-14.7,0-26.7-11.9-26.7-26.7H53.3c0,44.2,35.8,80,80,80V746.7z"/>
<path d="M666.7,800c44.2,0,80-35.8,80-80h-53.3c0,14.7-11.9,26.7-26.7,26.7V800z"/>
<path d="M106.7,80c0-14.7,11.9-26.7,26.7-26.7V0c-44.2,0-80,35.8-80,80H106.7z"/>
<g>
	<polygon class="st0" points="586.7,426.7 586.7,373.3 560,373.3 240,373.3 213.3,373.3 213.3,426.7 240,426.7 560,426.7 	"/>
	<polygon class="st0" points="346.7,266.7 373.3,266.7 373.3,213.3 346.7,213.3 240,213.3 213.3,213.3 213.3,266.7 240,266.7 	"/>
	<path class="st0" d="M612.3,603.5c-6.9-3.5-14-7.4-22.2-11.9c-8-4.3-16.8-9-26.1-13.5c-33.2-15.8-75.5-29.6-123.6-15.3
		c-37.2-34.2-80.2-42.7-117.9-32.6c-38,10.2-69.2,39.1-81,74.7l50.6,16.9c5.9-17.8,22.7-34.2,44.3-40c14.7-4,32.6-3.1,51.2,7.8
		c-0.5,0.3-0.9,0.7-1.4,1c-19.1,9.7-33.5,18.5-43.6,26.6c-5.2,4.2-10.1,8.9-13.9,14.2c-3.6,5.1-7.9,13.2-7.4,23.4
		c0.5,11.5,6.8,20,13.6,25c6.1,4.5,12.7,6.4,17.6,7.4c10,2,21.3,1.5,31.7-0.1c20.3-3.1,46.5-11.8,64.4-28c9.3-8.5,18.1-20.6,20-36.6
		c0.4-3.8,0.5-7.5,0.1-11.1c25.1-3.6,48.6,3.7,72.6,15.1c8,3.8,15.8,7.9,23.6,12.2c7.7,4.2,15.8,8.6,23.5,12.5
		c14.7,7.4,32.9,15.6,51.8,15.6v-53.3C635,613.3,626.8,610.8,612.3,603.5z M362.6,634.7C362.4,634.6,362.4,634.6,362.6,634.7
		L362.6,634.7z"/>
</g>
</svg>
