<?xml version="1.0" encoding="utf-8"?>
<!-- Generator: Adobe Illustrator 26.4.1, SVG Export Plug-In . SVG Version: 6.00 Build 0)  -->
<svg version="1.1" id="Layer_1" xmlns="http://www.w3.org/2000/svg" xmlns:xlink="http://www.w3.org/1999/xlink" x="0px" y="0px"
	 viewBox="0 0 800 800" style="enable-background:new 0 0 800 800;" xml:space="preserve">
<style type="text/css">
	.st0{fill:#27323A;}
	.st1{fill:#EB7D29;}
</style>
<path class="st0" d="M388.2,418.1l-43-55.5l39.3,51.7C385.5,415.8,386.8,417,388.2,418.1z"/>
<path class="st0" d="M714,289c-5-5-11.6-7.5-18.2-7.5H516.5l-29,38.6h162.7L398.6,536.9L149,320h163.1l-29.9-38.6H103.8
	c-6.6,0-13.2,2.5-18.2,7.5c-5,5-7.5,11.6-7.5,18.2v389.2c0,6.6,2.5,13.2,7.5,18.2c4.8,4.8,11.4,7.5,18.2,7.5h591.9
	c6.6,0,13.2-2.5,18.2-7.5c4.8-4.8,7.5-11.4,7.5-18.2V307.2C721.5,300.3,718.8,293.8,714,289z M116.7,343l132.8,115.5L116.7,642.9
	V343z M135.1,683.4l143.7-199.5l94.4,82.1c7.3,6.4,16.7,10,26.5,10c9.8,0,19.2-3.5,26.5-9.9l94.5-82.1l143.7,199.5H135.1z
	 M682.9,642.9L550,458.5L682.9,343V642.9z"/>
<path class="st1" d="M558,208.3c-3.3-6.6-10-10.7-17.3-10.7h-56.5V93.8c0-10.7-8.6-19.3-19.3-19.3H335.7c-10.7,0-19.3,8.6-19.3,19.3
	v103.7h-57.5c-7.3,0-14,4.1-17.3,10.7c-3.3,6.6-2.5,14.4,1.9,20.3l40.1,52.9h-1.4l29.9,38.6h0.7l32.3,42.6l43,55.5
	c3.3,2.5,7.4,3.9,11.6,3.9c6,0,11.8-2.8,15.4-7.6l71.5-94.3h0.8l29-38.6H516l40.1-52.9C560.6,222.7,561.3,214.9,558,208.3z"/>
</svg>
