<?xml version="1.0" encoding="utf-8"?>
<!-- Generator: Adobe Illustrator 26.4.1, SVG Export Plug-In . SVG Version: 6.00 Build 0)  -->
<svg version="1.1" id="Layer_1" xmlns="http://www.w3.org/2000/svg" xmlns:xlink="http://www.w3.org/1999/xlink" x="0px" y="0px"
	 viewBox="0 0 768 768" style="enable-background:new 0 0 768 768;" xml:space="preserve">
<style type="text/css">
	.st0{fill:#FFFFFF;}
	.st1{fill:#2684FC;}
	.st2{fill:#E94235;}
	.st3{fill:#00AC47;}
	.st4{fill:#00832D;}
	.st5{fill:#FFBA00;}
	.st6{fill:#0066DA;}
</style>
<g>
	<g>
		<g>
			<path class="st0" d="M586.1,181.9l-181.9-20.2l-222.3,20.2L161.7,384l20.2,202.1L384,611.4l202.1-25.3l20.2-207.2L586.1,181.9z"
				/>
			<path class="st1" d="M264.8,495.5c-15.1-10.2-25.6-25.1-31.3-44.8l35.1-14.4c3.2,12.1,8.7,21.5,16.7,28.2
				c7.9,6.7,17.5,10,28.7,10c11.5,0,21.3-3.5,29.6-10.5c8.2-7,12.4-15.9,12.4-26.6c0-11-4.3-20-13-27c-8.7-7-19.6-10.5-32.6-10.5
				H290v-34.7h18.2c11.2,0,20.7-3,28.3-9.1c7.7-6.1,11.5-14.3,11.5-24.9c0-9.4-3.4-16.9-10.3-22.5c-6.9-5.6-15.6-8.4-26.1-8.4
				c-10.3,0-18.5,2.7-24.6,8.2c-6.1,5.5-10.5,12.3-13.2,20.3l-34.7-14.5c4.6-13,13-24.6,25.4-34.5c12.4-10,28.2-15,47.4-15
				c14.2,0,27,2.7,38.3,8.2c11.3,5.5,20.2,13.1,26.6,22.8c6.4,9.8,9.6,20.7,9.6,32.8c0,12.4-3,22.8-8.9,31.4
				c-6,8.6-13.3,15.2-22,19.8v2.1c11.5,4.8,20.8,12.1,28.2,22c7.3,9.9,11,21.6,11,35.4s-3.5,26-10.5,36.8
				c-7,10.8-16.6,19.2-28.8,25.4c-12.3,6.2-26.1,9.3-41.4,9.3C296.3,510.8,279.9,505.7,264.8,495.5z"/>
			<path class="st1" d="M480,321.4l-38.3,27.8l-19.2-29.2l69.1-49.8H518v235h-38V321.4z"/>
			<path class="st2" d="M586.1,768L768,586.1v-40.4H586.1v40.4h-40.4V768H586.1z"/>
			<path class="st3" d="M586.1,586.1H141.5V768h444.6V586.1z"/>
			<path class="st1" d="M60.6,0C27.1,0,0,27.1,0,60.6v565.9h181.9V181.9h444.6V0H60.6z"/>
			<path class="st4" d="M0,586.1v121.3C0,740.9,27.1,768,60.6,768h121.3V586.1H0z"/>
			<path class="st5" d="M768,141.5H586.1v444.6H768V141.5z"/>
			<path class="st6" d="M768,181.9V60.6C768,27.1,740.9,0,707.4,0H586.1v181.9H768z"/>
		</g>
	</g>
</g>
</svg>
