<?xml version="1.0" encoding="utf-8"?>
<!-- Generator: Adobe Illustrator 26.4.1, SVG Export Plug-In . SVG Version: 6.00 Build 0)  -->
<svg version="1.1" id="Layer_1" xmlns="http://www.w3.org/2000/svg" xmlns:xlink="http://www.w3.org/1999/xlink" x="0px" y="0px"
	 viewBox="0 0 271 240.8" style="enable-background:new 0 0 271 240.8;" xml:space="preserve">
<style type="text/css">
	.st0{fill:#1A73E8;}
	.st1{fill:#EA4335;}
	.st2{fill:#FBBC04;}
	.st3{fill:#34A853;}
	.st4{fill:#185DB7;}
</style>
<path class="st0" d="M271,120.4L271,120.4c0,12.6-10.2,22.8-22.8,22.8h-78.8l-33.9-68.5l36.6-63.3c6.3-10.9,20.3-14.7,31.2-8.4l0,0
	c10.9,6.3,14.7,20.3,8.4,31.2L175,97.6h73.1C260.8,97.6,271,107.8,271,120.4C271,120.4,271,120.4,271,120.4z"/>
<path class="st1" d="M203.2,237.8L203.2,237.8c-10.9,6.3-24.9,2.6-31.2-8.3c0,0,0,0,0,0l-36.6-63.3l-36.6,63.3
	c-6.3,10.9-20.3,14.7-31.2,8.4l0,0c-10.9-6.3-14.7-20.3-8.4-31.2L96,143.3l39.5-1.5l39.5,1.5l36.6,63.3
	C217.9,217.5,214.2,231.5,203.2,237.8C203.3,237.8,203.3,237.8,203.2,237.8z"/>
<path class="st2" d="M135.5,74.8l-10.3,28L96,97.6L59.4,34.3c-6.3-10.9-2.6-24.9,8.4-31.2l0,0c10.9-6.3,24.9-2.6,31.2,8.3
	L135.5,74.8z"/>
<path class="st3" d="M129.6,97.6l-26.5,45.7H22.8C10.2,143.2,0,133,0,120.4l0,0c0-12.6,10.2-22.8,22.8-22.8H129.6z"/>
<polygon class="st4" points="175,143.2 95.9,143.2 135.5,74.8 "/>
</svg>
