<?xml version="1.0" encoding="utf-8"?>
<!-- Generator: Adobe Illustrator 26.4.1, SVG Export Plug-In . SVG Version: 6.00 Build 0)  -->
<svg version="1.1" id="Layer_1" xmlns="http://www.w3.org/2000/svg" xmlns:xlink="http://www.w3.org/1999/xlink" x="0px" y="0px"
	 viewBox="0 0 512 512" style="enable-background:new 0 0 512 512;" xml:space="preserve">
<style type="text/css">
	.st0{fill:#EB7D29;}
</style>
<path class="st0" d="M149.1,361.5H323c8.5,0,15.3-6.9,15.3-15.3v-83c0-28.2-16.4-52.5-40.1-64.2c6.5-9.1,10.4-20.3,10.4-32.4v-38
	c0-8.5-6.9-15.3-15.3-15.3s-15.3,6.9-15.3,15.3v38c0,13.8-11.2,25-24.9,25.1H219c-13.7-0.1-24.9-11.3-24.9-25.1v-38
	c0-13.8,11.3-25.1,25.1-25.1h33.7c8.5,0,15.3-6.9,15.3-15.3s-6.9-15.3-15.3-15.3h-33.7c-30.8,0-55.8,25-55.8,55.8v38
	c0,12.1,3.9,23.3,10.4,32.4c-23.7,11.6-40.1,36-40.1,64.2v83C133.8,354.7,140.6,361.5,149.1,361.5z M164.5,263.2
	c0-22.5,18.3-40.8,40.8-40.8h13.5c0.1,0,0.3,0,0.4,0h1.5v62.7c0,8.5,6.9,15.3,15.3,15.3s15.3-6.9,15.3-15.3v-62.7h1.5
	c0.1,0,0.3,0,0.4,0h13.5c22.5,0,40.8,18.3,40.8,40.8v67.7h0v0H164.5V263.2z"/>
<path d="M132.8,111.1c-6-6-15.7-6-21.7,0c-30.9,30.9-49,71.9-51,115.6c-0.4,8.5,6.2,15.6,14.6,16c0.2,0,0.5,0,0.7,0
	c8.1,0,14.9-6.4,15.3-14.6c1.6-36,16.6-69.8,42.1-95.3C138.8,126.8,138.8,117.1,132.8,111.1z"/>
<path d="M507.5,450l-52.4-52.4c-6-6-15.7-6-21.7,0l-7.1,7.1L400.7,379c-3-3-6.9-4.5-10.8-4.5c-0.1,0-0.1,0-0.2,0
	c-0.4,0-0.8,0-1.3,0.1c-0.4,0-0.9,0.1-1.3,0.2c-0.1,0-0.2,0-0.3,0.1c-0.3,0.1-0.7,0.2-1,0.2c-0.1,0-0.2,0.1-0.3,0.1
	c-0.4,0.1-0.7,0.2-1.1,0.4c-0.2,0.1-0.4,0.2-0.7,0.3c-0.1,0.1-0.3,0.1-0.4,0.2c-0.9,0.4-1.7,0.9-2.5,1.5c0,0,0,0-0.1,0c0,0,0,0,0,0
	c-0.3,0.2-0.5,0.4-0.7,0.6c-0.3,0.3-0.6,0.5-0.9,0.8c0,0,0,0,0,0c-79.6,79.6-209.1,79.6-288.7,0C50.6,339.3,30.7,287,30.7,234.7
	c0-52.3,19.9-104.6,59.7-144.3c0.6-0.6,1.3-1.3,2-1.9c0.6-0.6,1.2-1.1,1.7-1.7c0.4-0.4,0.9-0.8,1.3-1.2c0.9-0.8,1.7-1.6,2.6-2.4
	c0.2-0.2,0.4-0.4,0.6-0.6c77.4-69.3,195.3-69.3,272.6,0.2c0.1,0.1,0.3,0.2,0.4,0.3c1,0.9,2,1.8,3,2.7c0.3,0.3,0.6,0.5,0.9,0.8
	c0.9,0.9,1.9,1.8,2.8,2.7c0.3,0.3,0.6,0.6,0.9,0.9c0,0,0,0,0,0c57.5,57.5,75.4,143.5,45.7,219.1c-3.1,7.9,0.8,16.8,8.7,19.9
	c7.9,3.1,16.8-0.8,19.9-8.7c34.2-87,13.6-185.9-52.5-252c0,0,0,0,0,0c0,0,0,0,0,0c0,0,0,0,0,0c-91.6-91.6-240.5-91.6-332.1,0
	s-91.6,240.5,0,332.1c0,0,0,0,0,0c0,0,0,0,0,0c45.8,45.8,105.9,68.7,166,68.7c1.1,0,2.1,0,3.2,0c0.7,0,1.4,0,2.1,0
	c1,0,2-0.1,3.1-0.1c0.8,0,1.5,0,2.3-0.1c1,0,2-0.1,3.1-0.2c0.8,0,1.5-0.1,2.3-0.1c1-0.1,2.1-0.2,3.1-0.2c0.8-0.1,1.5-0.1,2.3-0.2
	c1-0.1,2.1-0.2,3.1-0.3c0.7-0.1,1.5-0.2,2.2-0.2c1.1-0.1,2.1-0.3,3.2-0.4c0.7-0.1,1.4-0.2,2.1-0.3c1.1-0.1,2.2-0.3,3.3-0.5
	c0.7-0.1,1.3-0.2,2-0.3c1.1-0.2,2.2-0.4,3.4-0.6c0.6-0.1,1.2-0.2,1.8-0.3c1.2-0.2,2.4-0.4,3.5-0.7c0.5-0.1,1-0.2,1.5-0.3
	c1.3-0.3,2.6-0.5,3.8-0.8c0.3-0.1,0.6-0.1,0.9-0.2c9.9-2.2,19.7-5.1,29.3-8.7c0,0,0,0,0.1,0c1.6-0.6,3.1-1.2,4.7-1.8
	c0.1,0,0.2-0.1,0.3-0.1c1.5-0.6,3.1-1.2,4.6-1.9c0.1,0,0.2-0.1,0.3-0.1c1.5-0.7,3.1-1.3,4.6-2c0.1,0,0.1-0.1,0.2-0.1
	c20.8-9.3,40.6-21.9,58.5-37.6l15.1,15.1l-7.1,7.1c-6,6-6,15.7,0,21.7l52.4,52.4c2.9,2.9,6.8,4.5,10.8,4.5c4.1,0,8-1.6,10.8-4.5
	l35.8-35.8c2.9-2.9,4.5-6.8,4.5-10.8C512,456.8,510.4,452.9,507.5,450z M460.8,475l-30.7-30.7l14.1-14.1l30.7,30.7L460.8,475z"/>
</svg>
