<?xml version="1.0" encoding="utf-8"?>
<!-- Generator: Adobe Illustrator 26.4.1, SVG Export Plug-In . SVG Version: 6.00 Build 0)  -->
<svg version="1.1" id="Layer_1" xmlns="http://www.w3.org/2000/svg" xmlns:xlink="http://www.w3.org/1999/xlink" x="0px" y="0px"
	 viewBox="0 0 56 56" style="enable-background:new 0 0 56 56;" xml:space="preserve">
<style type="text/css">
	.st0{fill:url(#SVGID_1_);}
	.st1{fill:#FFFFFF;}
</style>
<g>
	
		<radialGradient id="SVGID_1_" cx="27.6019" cy="29.9906" r="71.694" fx="-2.4902" fy="30.449" gradientTransform="matrix(0.6534 -0.757 0.6147 0.5306 -8.8683 34.9727)" gradientUnits="userSpaceOnUse">
		<stop  offset="0" style="stop-color:#F9ED32"/>
		<stop  offset="5.478359e-02" style="stop-color:#F8D939"/>
		<stop  offset="0.167" style="stop-color:#F5A54D"/>
		<stop  offset="0.3253" style="stop-color:#F0536C"/>
		<stop  offset="0.3998" style="stop-color:#EE2A7B"/>
		<stop  offset="0.5639" style="stop-color:#9E2AA7"/>
		<stop  offset="0.7189" style="stop-color:#5B2ACD"/>
		<stop  offset="0.8476" style="stop-color:#2A2AE8"/>
		<stop  offset="0.9451" style="stop-color:#0B2AF9"/>
		<stop  offset="1" style="stop-color:#002AFF"/>
	</radialGradient>
	<path class="st0" d="M53.4,28C53.4,42,42,53.4,28,53.4C14,53.4,2.6,42,2.6,28C2.6,14,14,2.6,28,2.6C42,2.6,53.4,14,53.4,28z"/>
	<g>
		<g>
			<path class="st1" d="M34.9,45.1H21.1c-6.1,0-11.1-5-11.1-11.1V21.9c0-6.1,5-11.1,11.1-11.1h13.7c6.1,0,11.1,5,11.1,11.1v12.1
				C45.9,40.2,41,45.1,34.9,45.1z M21.1,13.3c-4.7,0-8.6,3.9-8.6,8.6v12.1c0,4.7,3.9,8.6,8.6,8.6h13.7c4.7,0,8.6-3.9,8.6-8.6V21.9
				c0-4.7-3.9-8.6-8.6-8.6H21.1z"/>
		</g>
		<g>
			<path class="st1" d="M28,37.8c-5.4,0-9.8-4.4-9.8-9.8c0-5.4,4.4-9.8,9.8-9.8c5.4,0,9.8,4.4,9.8,9.8C37.8,33.4,33.4,37.8,28,37.8z
				 M28,20.6c-4.1,0-7.4,3.3-7.4,7.4c0,4.1,3.3,7.4,7.4,7.4c4.1,0,7.4-3.3,7.4-7.4C35.4,23.9,32.1,20.6,28,20.6z"/>
		</g>
		<g>
			<path class="st1" d="M39.7,18.5c0,1.1-0.9,2-2,2c-1.1,0-2-0.9-2-2c0-1.1,0.9-2,2-2C38.8,16.4,39.7,17.3,39.7,18.5z"/>
		</g>
	</g>
</g>
</svg>
