<?xml version="1.0" encoding="utf-8"?>
<!-- Generator: Adobe Illustrator 26.4.1, SVG Export Plug-In . SVG Version: 6.00 Build 0)  -->
<svg version="1.1" id="Layer_1" xmlns="http://www.w3.org/2000/svg" xmlns:xlink="http://www.w3.org/1999/xlink" x="0px" y="0px"
	 viewBox="0 0 800 800" style="enable-background:new 0 0 800 800;" xml:space="preserve">
<style type="text/css">
	.st0{fill:#EB7D29;}
</style>
<polygon points="560,26.7 578.9,7.8 571,0 560,0 "/>
<polygon points="720,186.7 746.7,186.7 746.7,175.6 738.9,167.8 "/>
<rect x="133.3" y="746.7" width="533.3" height="53.3"/>
<rect x="53.3" y="80" width="53.3" height="640"/>
<rect x="133.3" y="0" width="426.7" height="53.3"/>
<rect x="693.3" y="186.7" width="53.3" height="533.3"/>
<rect x="613.3" y="-6.5" transform="matrix(0.7071 -0.7071 0.7071 0.7071 112.0271 483.7905)" width="53.3" height="226.3"/>
<path d="M133.3,746.7c-14.7,0-26.7-11.9-26.7-26.7H53.3c0,44.2,35.8,80,80,80V746.7z"/>
<path d="M666.7,800c44.2,0,80-35.8,80-80h-53.3c0,14.7-11.9,26.7-26.7,26.7V800z"/>
<path d="M106.7,80c0-14.7,11.9-26.7,26.7-26.7V0c-44.2,0-80,35.8-80,80H106.7z"/>
<polygon class="st0" points="586.7,426.7 586.7,373.3 560,373.3 240,373.3 213.3,373.3 213.3,426.7 240,426.7 560,426.7 "/>
<polygon class="st0" points="586.7,609.7 586.7,556.3 560,556.3 240,556.3 213.3,556.3 213.3,609.7 240,609.7 560,609.7 "/>
<polygon class="st0" points="524.4,266.7 586.7,266.7 586.7,213.3 524.4,213.3 275.6,213.3 213.3,213.3 213.3,266.7 275.6,266.7 "/>
</svg>
