<?xml version="1.0" encoding="utf-8"?>
<!-- Generator: Adobe Illustrator 26.4.1, SVG Export Plug-In . SVG Version: 6.00 Build 0)  -->
<svg version="1.1" id="Layer_1" xmlns="http://www.w3.org/2000/svg" xmlns:xlink="http://www.w3.org/1999/xlink" x="0px" y="0px"
	 viewBox="0 0 800 800" style="enable-background:new 0 0 800 800;" xml:space="preserve">
<style type="text/css">
	.st0{fill:#EB7D29;}
</style>
<path class="st0" d="M480,480H320c-22.1,0-40,17.9-40,40v160c0,22.1,17.9,40,40,40h160c22.1,0,40-17.9,40-40V520
	C520,497.9,502.1,480,480,480z"/>
<path d="M240,120c0-22.1-17.9-40-40-40H40C17.9,80,0,97.9,0,120v160c0,22.1,17.9,40,40,40h119.6l91.5,160c13.9-23.8,39.4-40,68.9-40
	h0.4L240,299.4V240h280v-80H240V120z"/>
<path class="st0" d="M760,80H600c-22.1,0-40,17.9-40,40v160c0,22.1,17.9,40,40,40h160c22.1,0,40-17.9,40-40V120
	C800,97.9,782.1,80,760,80z"/>
</svg>
