<?xml version="1.0" encoding="utf-8"?>
<!-- Generator: Adobe Illustrator 26.4.1, SVG Export Plug-In . SVG Version: 6.00 Build 0)  -->
<svg version="1.1" id="Layer_1" xmlns="http://www.w3.org/2000/svg" xmlns:xlink="http://www.w3.org/1999/xlink" x="0px" y="0px"
	 viewBox="0 0 56 56" style="enable-background:new 0 0 56 56;" xml:space="preserve">
<style type="text/css">
	.st0{fill:#2CA01C;}
	.st1{fill:#FFFFFF;}
</style>
<circle class="st0" cx="28" cy="28" r="25.6"/>
<path class="st1" d="M8.6,28c0,5.8,4.7,10.5,10.4,10.5h1.5v-3.9H19c-3.6,1-7.3-1.1-8.3-4.7c0,0,0-0.1,0-0.1c-1-3.6,1.1-7.4,4.7-8.4
	h0.7c0.9-0.2,1.9-0.2,2.8,0h3.6v20.5c0,2.2,1.7,3.9,3.9,4V17.4h-7.5C13.2,17.4,8.6,22.1,8.6,28L8.6,28L8.6,28z M37,17.4h-1.5v4.1H37
	c3.6-1,7.3,1.1,8.2,4.7c0,0,0,0.1,0,0.1c1,3.6-1.1,7.4-4.7,8.4h-0.7c-0.9,0.2-1.9,0.2-2.8,0h-3.6V14.1c0-2.2-1.7-3.9-3.9-4v28.6h7.5
	c5.9-0.1,10.6-4.9,10.5-10.8c-0.1-5.7-4.7-10.4-10.5-10.5L37,17.4z"/>
</svg>
