<?xml version="1.0" encoding="utf-8"?>
<!-- Generator: Adobe Illustrator 26.4.1, SVG Export Plug-In . SVG Version: 6.00 Build 0)  -->
<svg version="1.1" id="Layer_1" xmlns="http://www.w3.org/2000/svg" xmlns:xlink="http://www.w3.org/1999/xlink" x="0px" y="0px"
	 viewBox="0 0 800 800" style="enable-background:new 0 0 800 800;" xml:space="preserve">
<style type="text/css">
	.st0{fill:#FFAE00;}
</style>
<g id="SVGRepo_bgCarrier">
</g>
<g id="SVGRepo_tracerCarrier">
</g>
<rect x="90.8" y="492.4" width="135" height="307.6"/>
<rect x="291.2" y="384.1" width="135" height="415.9"/>
<rect x="503.6" y="294.3" width="135" height="505.7"/>
<g>
	<path class="st0" d="M93.1,456.2L85.8,440c1.8-0.9,3.6-1.8,5.4-2.7l7.3,16.3C96.8,454.4,94.9,455.3,93.1,456.2z"/>
	<path class="st0" d="M109.6,448l-7.4-16.2c3.6-1.8,7.2-3.7,10.9-5.5l7.5,16.2C116.9,444.3,113.3,446.2,109.6,448z M131.6,436.8
		l-7.6-16.1c3.6-1.9,7.2-3.8,10.8-5.7l7.7,16C138.9,433,135.2,434.9,131.6,436.8z M153.4,425.3l-7.8-16c3.6-1.9,7.2-3.9,10.8-5.8
		l7.9,15.9C160.7,421.4,157,423.3,153.4,425.3z M175.1,413.4l-8-15.9c3.5-2,7.1-4,10.7-6l8.1,15.8
		C182.3,409.4,178.7,411.4,175.1,413.4z M196.7,401.3l-8.2-15.8c3.5-2,7.1-4.1,10.6-6.1l8.3,15.7
		C203.8,397.2,200.2,399.3,196.7,401.3z M218,388.9l-8.4-15.7c3.5-2.1,7-4.2,10.5-6.3l8.5,15.6C225.1,384.7,221.6,386.8,218,388.9z
		 M239.3,376.2l-8.6-15.5c3.5-2.1,7-4.3,10.5-6.4l8.7,15.5C246.3,371.9,242.8,374,239.3,376.2z M260.3,363.1l-8.8-15.4
		c3.4-2.2,6.9-4.3,10.4-6.6l8.9,15.4C267.3,358.7,263.8,361,260.3,363.1z M281.2,349.8l-9-15.3c3.4-2.2,6.9-4.4,10.3-6.7l9.1,15.2
		C288.1,345.3,284.7,347.6,281.2,349.8z M302,336.2l-9.2-15.2c3.4-2.3,6.8-4.5,10.2-6.8l9.3,15.1C308.8,331.7,305.4,334,302,336.2z
		 M322.5,322.4l-9.4-15c3.4-2.3,6.7-4.6,10.1-7l9.5,15C329.3,317.7,325.9,320,322.5,322.4z M342.9,308.2l-9.6-14.9l1.7-1.2
		c2.8-2,5.6-4,8.3-5.9L353,301c-2.8,2-5.6,4-8.4,6L342.9,308.2z M363.1,293.7l-9.8-14.8c3.3-2.4,6.6-4.8,9.9-7.3l9.8,14.7
		C369.8,288.9,366.4,291.3,363.1,293.7z M383.1,279l-9.9-14.6c3.3-2.5,6.6-4.9,9.8-7.4l10,14.6C389.7,274.1,386.4,276.5,383.1,279z
		 M402.9,264l-10.1-14.5c3.3-2.5,6.5-5,9.7-7.5l10.2,14.4C409.5,259,406.2,261.5,402.9,264z M422.5,248.7l-10.3-14.4
		c3.2-2.6,6.5-5.1,9.7-7.7l10.4,14.3C429.1,243.6,425.8,246.2,422.5,248.7z M442,233.2L431.5,219c3.2-2.6,6.4-5.2,9.6-7.8l10.6,14.1
		C448.4,228,445.2,230.6,442,233.2z M461.2,217.4l-10.7-14.1c3.2-2.6,6.3-5.3,9.5-7.9l10.8,14C467.6,212.1,464.4,214.7,461.2,217.4z
		 M480.3,201.3l-10.8-13.9c3.1-2.7,6.3-5.4,9.4-8.1l10.9,13.8C486.6,195.9,483.4,198.6,480.3,201.3z M499.1,185l-11-13.8
		c3.1-2.7,6.2-5.5,9.3-8.2l11.1,13.7C505.4,179.5,502.2,182.2,499.1,185z M517.7,168.4l-11.2-13.6c3.1-2.8,6.1-5.5,9.2-8.3L527,160
		C523.9,162.8,520.8,165.6,517.7,168.4z M536.2,151.5l-11.4-13.5c3-2.8,6.1-5.6,9-8.4l11.4,13.4
		C542.3,145.8,539.2,148.7,536.2,151.5z"/>
	<path class="st0" d="M554.4,134.4l-11.5-13.3c1.5-1.4,3-2.8,4.4-4.3l11.6,13.3C557.4,131.5,555.9,133,554.4,134.4z"/>
	<g>
		<polygon class="st0" points="639.7,34.9 565.6,211.7 546.2,129.7 468.7,106.7 		"/>
	</g>
</g>
</svg>
