<?xml version="1.0" encoding="utf-8"?>
<!-- Generator: Adobe Illustrator 26.4.1, SVG Export Plug-In . SVG Version: 6.00 Build 0)  -->
<svg version="1.1" id="Layer_1" xmlns="http://www.w3.org/2000/svg" xmlns:xlink="http://www.w3.org/1999/xlink" x="0px" y="0px"
	 viewBox="0 0 56 56" style="enable-background:new 0 0 56 56;" xml:space="preserve">
<style type="text/css">
	.st0{fill:url(#SVGID_1_);}
	.st1{fill:#C8DAEA;}
	.st2{fill:#A9C6D8;}
	.st3{fill:#FFFFFF;}
</style>
<linearGradient id="SVGID_1_" gradientUnits="userSpaceOnUse" x1="28" y1="3.8144" x2="28" y2="54.324" gradientTransform="matrix(1 0 0 -1 0 57.44)">
	<stop  offset="0" style="stop-color:#1D93D2"/>
	<stop  offset="1" style="stop-color:#38B0E3"/>
</linearGradient>
<circle class="st0" cx="28" cy="28.4" r="25.3"/>
<path class="st1" d="M19.8,30.2l3,8.3c0,0,0.4,0.8,0.8,0.8c0.4,0,6.4-6.2,6.4-6.2l6.6-12.8l-16.7,7.8L19.8,30.2z"/>
<path class="st2" d="M23.8,32.3l-0.6,6.1c0,0-0.2,1.9,1.6,0c1.9-1.9,3.7-3.3,3.7-3.3"/>
<path class="st3" d="M19.9,30.5l-6.2-2c0,0-0.7-0.3-0.5-1c0-0.1,0.1-0.3,0.4-0.5c1.4-1,25.3-9.5,25.3-9.5s0.7-0.2,1.1-0.1
	c0.2,0.1,0.4,0.2,0.4,0.4c0,0.2,0.1,0.4,0.1,0.5c0,0.2,0,0.3,0,0.5c-0.1,2.3-4.5,19.9-4.5,19.9s-0.3,1-1.2,1.1
	c-0.5,0-0.9-0.2-1.2-0.5c-1.8-1.6-8.2-5.8-9.6-6.8c-0.1,0-0.1-0.1-0.1-0.2c0-0.1,0.1-0.2,0.1-0.2s11-9.8,11.3-10.8
	c0-0.1-0.1-0.1-0.2-0.1c-0.7,0.3-13.4,8.3-14.8,9.2C20.1,30.5,20,30.5,19.9,30.5z"/>
</svg>
