<?xml version="1.0" encoding="utf-8"?>
<!-- Generator: Adobe Illustrator 26.4.1, SVG Export Plug-In . SVG Version: 6.00 Build 0)  -->
<svg version="1.1" id="Layer_1" xmlns="http://www.w3.org/2000/svg" xmlns:xlink="http://www.w3.org/1999/xlink" x="0px" y="0px"
	 viewBox="0 0 56 56" style="enable-background:new 0 0 56 56;" xml:space="preserve">
<style type="text/css">
	.st0{fill:#32BA46;}
	.st1{fill:none;}
	.st2{fill:#FFFFFF;}
</style>
<g>
	<g>
		<g>
			<path class="st0" d="M28,52.3c-4.3,0-8.4-1.1-12.1-3.3l-9.5,3.3l1.9-10C5.3,38.1,3.7,33.2,3.7,28C3.7,14.6,14.6,3.7,28,3.7
				c13.4,0,24.3,10.9,24.3,24.3C52.3,41.4,41.4,52.3,28,52.3z"/>
		</g>
	</g>
	<g>
		<g>
			<path class="st1" d="M28,13.3c-8.1,0-14.7,6.6-14.7,14.7c0,3.4,1.2,6.6,3.1,9l-1,5.1l4.8-1.6c2.3,1.4,4.9,2.3,7.8,2.3
				c8.1,0,14.7-6.6,14.7-14.7C42.7,19.9,36.1,13.3,28,13.3z"/>
			<path class="st2" d="M28,43.9c-2.8,0-5.5-0.7-7.9-2.1l-6.2,2.1l1.3-6.6c-2-2.7-3-6-3-9.3c0-8.8,7.1-15.9,15.9-15.9
				c8.8,0,15.9,7.1,15.9,15.9C43.9,36.8,36.8,43.9,28,43.9z M20.4,39.2l0.5,0.3c2.2,1.4,4.6,2.1,7.2,2.1c7.5,0,13.5-6.1,13.5-13.5
				c0-7.5-6.1-13.5-13.5-13.5c-7.5,0-13.5,6.1-13.5,13.5c0,3,1,5.9,2.9,8.3l0.3,0.4L17,40.3L20.4,39.2z"/>
		</g>
		<path class="st2" d="M20,21.9c0,0,0.9-1.6,1.7-1.7c0.8-0.1,1.7-0.1,2,0.4c0.3,0.5,1.4,3.4,1.4,3.4s0.2,0.5-0.1,1
			c-0.3,0.5-1,1.2-1,1.2s-0.4,0.5,0,1c0.4,0.5,1,1.5,2.2,2.7c1.2,1.2,3.6,2.1,3.6,2.1s0.3,0,0.6-0.2c0.2-0.2,1.4-1.7,1.4-1.7
			s0.4-0.5,1-0.2c0.6,0.3,3.4,1.6,3.4,1.6s0.3,0.1,0.3,0.6c0,0.5-0.2,1.7-0.6,2.1c-0.4,0.4-1.6,1.6-3.3,1.6c-1.8,0-5.9-1.4-8.1-3.6
			c-2.2-2.2-4.2-4.5-4.7-6.5C19.3,23.7,19.4,22.7,20,21.9z"/>
	</g>
</g>
</svg>
