<?xml version="1.0" encoding="utf-8"?>
<!-- Generator: Adobe Illustrator 26.4.1, SVG Export Plug-In . SVG Version: 6.00 Build 0)  -->
<svg version="1.1" id="Layer_1" xmlns="http://www.w3.org/2000/svg" xmlns:xlink="http://www.w3.org/1999/xlink" x="0px" y="0px"
	 viewBox="0 0 56 56" style="enable-background:new 0 0 56 56;" xml:space="preserve">
<style type="text/css">
	.st0{fill:#0072E5;}
</style>
<g>
	<path class="st0" d="M27.9,2.6c-14,0.1-25,10.9-25.3,25C2.3,42.1,13.8,53.3,27.8,53.4C42,53.6,53,42.2,53.4,29.1
		C54,14,42.1,2.4,27.9,2.6z M46.5,33.1c0,0.1,0,0.2-0.1,0.4c-0.4,1.3-0.7,1.5-2,1.2c-1.9-0.5-3.7-1-5.6-1.6
		c-0.4-0.1-0.8-0.2-1.3-0.3c-0.1,0.9-0.1,1.7-0.1,2.6c-0.1,2.8-2,3.9-4.3,4c-5.6,0.1-11.2,0.1-16.8,0.1c-1.2,0-2.4-0.2-3.5-0.6
		c-1.4-0.5-1.9-1.8-2-3.2c-0.1-1.9-0.1-3.8-0.1-5.7c0-3,0-6.1,0.1-9.1c0-2.5,1.5-3.9,4-3.9c6.1-0.1,12.1-0.1,18.2,0
		c0.9,0,1.8,0.4,2.7,0.8c1.5,0.7,1.7,2.2,1.8,3.6c0,0.7,0,1.4,0,2.2c1.5-0.4,2.9-0.8,4.2-1.2c1-0.3,2.1-0.6,3.1-0.9
		c0.6-0.2,1.1,0,1.2,0.6c0.3,1.1,0.7,2.3,0.8,3.4C47.2,28,47.1,30.6,46.5,33.1z"/>
	<path class="st0" d="M28.9,28c-2.7-1.4-5.5-2.7-8.3-4.1c-0.6-0.3-0.9-0.1-0.9,0.6c0,1.3,0,2.6,0,3.8c0,0,0,0,0,0c0,1.3,0,2.6,0,3.9
		c0,0.7,0.3,0.9,1,0.6c0.3-0.1,0.7-0.3,1-0.5c2.4-1.2,4.8-2.4,7.1-3.6C29.4,28.6,29.5,28.3,28.9,28z"/>
</g>
</svg>
