<?xml version="1.0" encoding="UTF-8"?>
<svg id="Layer_1" data-name="Layer 1" xmlns="http://www.w3.org/2000/svg" viewBox="0 0 127.19 32.94">
  <defs>
    <style>
      .cls-1 {
        fill: #eb7d29;
      }

      .cls-2 {
        fill: #666;
      }
    </style>
  </defs>
  <path class="cls-2" d="M13.09,21.01c.77,.44,1.66,.7,2.62,.7,.3,0,.59-.02,.87-.07,.63-.1,1.22-.32,1.75-.63,.23-.13,.45-.28,.65-.45,.51-.41,.94-.91,1.27-1.47,.44-.77,.7-1.66,.7-2.62s-.26-1.85-.7-2.62c-.33-.57-.76-1.07-1.27-1.47-.21-.17-.42-.31-.65-.45-.53-.31-1.12-.52-1.75-.63-.28-.05-.57-.07-.87-.07-.95,0-1.85,.26-2.62,.7-.79,.46-1.46,1.12-1.92,1.92-.44,.77-.7,1.66-.7,2.62s.26,1.85,.7,2.62c.46,.79,1.12,1.46,1.92,1.92Zm2.62-7.15h.22s0,0,0,0c1.34,.11,2.4,1.24,2.4,2.61s-1.06,2.5-2.4,2.61c0,0,0,0,0,0h-.22c-1.45,0-2.62-1.17-2.62-2.62s1.17-2.62,2.62-2.62Z"/>
  <path class="cls-1" d="M31.19,13.88s0,0,0,0c-.15-.88-.37-1.73-.65-2.55,0-.02-.02-.05-.02-.07-.22-.63-.48-1.24-.78-1.82-.09-.18-.19-.37-.29-.55-.05-.08-.09-.17-.14-.25-.16-.28-.34-.56-.52-.83-.15-.23-.31-.45-.47-.67-.13-.18-.27-.35-.41-.53-.16-.2-.33-.4-.51-.6-.22-.25-.45-.49-.69-.72l-.02-.04,1.86-1.86h-.03l1.24-1.24c-.22-.16-.44-.32-.67-.47-.27-.18-.55-.35-.83-.52-.26-.15-.52-.29-.79-.43l-1.97,1.97-1.59,1.59-2.66,2.66s.01,0,.02,0l-.35,.35v.09s-.04-.02-.06-.03c-.53-.3-1.1-.56-1.68-.77-.29-.1-.58-.19-.87-.27-.84-.22-1.71-.33-2.62-.33s-1.78,.11-2.62,.33c-.93,.24-1.81,.6-2.62,1.07-.6,.35-1.17,.76-1.69,1.22-.33,.29-.64,.6-.93,.93-.46,.52-.87,1.08-1.22,1.69-.47,.81-.83,1.69-1.07,2.62-.22,.84-.33,1.71-.33,2.62s.11,1.78,.33,2.62c.23,.91,.58,1.77,1.04,2.56,.01,.02,.02,.04,.03,.06,.35,.6,.76,1.17,1.22,1.69,.09,.11,.19,.21,.28,.31l1.85-1.85s-.09-.1-.14-.15c-.53-.59-.97-1.27-1.3-2-.09-.2-.17-.4-.25-.61-.29-.82-.45-1.7-.45-2.62s.16-1.8,.45-2.62c.34-.98,.88-1.86,1.55-2.62,.19-.22,.4-.42,.62-.62,.76-.68,1.64-1.21,2.62-1.55,.82-.29,1.7-.45,2.62-.45,.68,0,1.33,.09,1.96,.25,.22,.06,.44,.12,.66,.2,.21,.07,.41,.16,.62,.25,.39,.18,.77,.39,1.13,.63,.31,.21,.6,.43,.87,.68,.07,.06,.14,.13,.2,.19l3.71-3.71,.02,.03,.06-.06h0s-.06,.06-.06,.06c.22,.22,.44,.45,.65,.68,.23,.26,.45,.53,.66,.8h0s0,0,0,0c.09,.13,.19,.25,.27,.38,.21,.3,.41,.62,.6,.94,.24,.42,.46,.85,.65,1.3,.02,.05,.04,.1,.06,.15,.14,.33,.26,.66,.37,1,.16,.48,.29,.97,.39,1.47,.17,.85,.26,1.72,.26,2.62s-.09,1.77-.26,2.62c-.1,.5-.23,.99-.39,1.47-.13,.39-.27,.77-.44,1.15-.19,.45-.41,.88-.65,1.3-.26,.46-.56,.9-.87,1.32h0c-.21,.28-.43,.55-.66,.8-.59,.67-1.25,1.28-1.96,1.81h0c-.74,.56-1.54,1.04-2.4,1.43-.07,.03-.15,.07-.22,.1-.83,.36-1.71,.64-2.62,.83-.85,.17-1.72,.26-2.62,.26-.74,0-1.46-.06-2.17-.18l-2.19,2.19c.57,.16,1.15,.3,1.74,.39,.85,.14,1.73,.22,2.62,.22s1.77-.07,2.62-.22c.9-.15,1.78-.38,2.62-.68,.91-.32,1.79-.73,2.62-1.21,.28-.16,.56-.34,.83-.52,.55-.36,1.07-.76,1.57-1.19,.07-.06,.15-.13,.22-.19,.43-.39,.85-.8,1.23-1.23,.17-.19,.34-.39,.51-.6,.31-.38,.6-.78,.87-1.19,.18-.27,.35-.55,.52-.83,.05-.08,.09-.16,.14-.25,.42-.75,.78-1.55,1.07-2.37,0-.02,.02-.05,.02-.07,.29-.82,.5-1.67,.65-2.55,0,0,0,0,0,0,.14-.85,.22-1.72,.22-2.61s-.07-1.76-.22-2.61Z"/>
  <path class="cls-1" d="M12.66,25.72c.14,.04,.28,.08,.43,.12,.84,.22,1.71,.33,2.62,.33s1.78-.11,2.62-.33c.3-.08,.59-.17,.87-.27,.61-.22,1.19-.49,1.74-.8,.22-.13,.44-.27,.66-.41,.36-.25,.71-.51,1.03-.8,.33-.29,.64-.6,.93-.93,.46-.52,.87-1.08,1.22-1.69,.11-.19,.21-.38,.31-.58,.32-.64,.58-1.33,.76-2.04,.22-.84,.33-1.71,.33-2.62s-.11-1.78-.33-2.62c-.04-.14-.08-.29-.12-.43-.17-.56-.38-1.09-.64-1.61-.1-.2-.2-.39-.31-.58-.07-.12-.14-.23-.21-.35,0,0,0,0,0,0l-1.91,1.91c.18,.34,.33,.69,.46,1.05,.2,.57,.34,1.16,.4,1.78,.03,.27,.04,.55,.04,.83,0,.92-.16,1.8-.45,2.62-.26,.74-.63,1.42-1.08,2.04-.15,.2-.31,.39-.47,.58-.19,.22-.4,.42-.62,.62-.27,.25-.57,.47-.87,.68-.54,.36-1.12,.66-1.74,.87-.21,.08-.43,.14-.66,.2-.63,.16-1.28,.25-1.96,.25-.28,0-.56-.01-.83-.04-.62-.07-1.22-.2-1.78-.4-.36-.13-.72-.28-1.05-.46l-1.91,1.91-1.3,1.3s0,0,0,0l-.59,.59c-.13-.09-.25-.18-.38-.27h0s0,0,0,0c-.54-.4-1.04-.85-1.51-1.33-.4-.4-.76-.83-1.11-1.29h0s0,0,0,0c-.19-.25-.37-.51-.54-.77-.38-.58-.71-1.2-.99-1.85-.36-.83-.64-1.71-.83-2.62-.17-.85-.26-1.72-.26-2.62s.09-1.77,.26-2.62c.18-.91,.46-1.79,.83-2.62,.41-.93,.92-1.81,1.53-2.62h0c.74-.99,1.63-1.87,2.62-2.62h0c.8-.61,1.68-1.12,2.62-1.53,.83-.36,1.71-.64,2.62-.83,.85-.17,1.72-.26,2.62-.26s1.77,.09,2.62,.26c.69,.14,1.35,.33,2,.57l2-2c-.45-.21-.91-.4-1.38-.56-.84-.3-1.72-.52-2.62-.68-.85-.14-1.73-.22-2.62-.22s-1.77,.07-2.62,.22c-.9,.15-1.78,.38-2.62,.68-.91,.32-1.79,.73-2.62,1.21-.28,.16-.56,.34-.83,.52-.63,.42-1.23,.88-1.79,1.38-.43,.39-.85,.8-1.23,1.23-.5,.56-.96,1.16-1.38,1.79-.18,.27-.35,.55-.52,.83-.48,.83-.88,1.7-1.21,2.62-.3,.84-.52,1.72-.68,2.62-.14,.85-.22,1.73-.22,2.62s.07,1.77,.22,2.62c.15,.9,.38,1.78,.68,2.62,.32,.91,.73,1.79,1.21,2.62,.16,.28,.34,.56,.52,.83,.06,.1,.13,.19,.19,.28,.36,.52,.76,1.03,1.19,1.5,.16,.18,.32,.35,.49,.52,.24,.25,.49,.48,.75,.71,.36,.32,.73,.63,1.12,.92,0,0,0,0,0,0l-1.06,1.06-.28,.28-1.87,1.87c.22,.16,.44,.32,.67,.47,.27,.18,.55,.35,.83,.52,.26,.15,.52,.29,.79,.43l1.97-1.97,1.43-1.43,1.77-1.77,1.59-1.59,.45-.45Z"/>
  <path class="cls-2" d="M49.55,14.17c-.36-.09-.66-.13-.9-.13-1.14,0-1.72,.65-1.72,1.96v3.15h-2.26v-6.92h2.17v1.18c.23-.46,.52-.79,.85-1.01,.34-.22,.76-.33,1.27-.33,.19,0,.38,.02,.59,.07v2.04Z"/>
  <path class="cls-2" d="M56.11,14.38c0-.46-.05-.82-.14-1.07-.09-.25-.27-.47-.53-.66-.58-.42-1.43-.63-2.55-.63-2.08,0-3.19,.77-3.34,2.32h2.14c.08-.35,.2-.58,.37-.7,.17-.12,.43-.17,.8-.17,.71,0,1.06,.25,1.06,.74,0,.28-.12,.46-.36,.56-.11,.04-.59,.13-1.46,.27-.37,.05-.65,.1-.86,.14s-.46,.11-.75,.22-.52,.23-.67,.37c-.15,.14-.29,.33-.4,.58-.12,.25-.17,.54-.17,.87,0,.66,.22,1.18,.65,1.56,.43,.38,1.03,.57,1.78,.57,.89,0,1.66-.29,2.29-.87,0,.24,.04,.46,.11,.66h2.3c-.18-.41-.27-1.07-.27-1.98v-2.77Zm-2.18,2.22c0,.43-.14,.76-.42,1-.28,.24-.62,.36-1.03,.36-.28,0-.5-.07-.66-.21-.16-.14-.24-.34-.24-.6,0-.45,.28-.73,.84-.84,.05,0,.18-.03,.37-.07,.19-.04,.33-.07,.42-.09,.08-.02,.2-.05,.34-.09,.14-.04,.27-.09,.38-.15v.71Z"/>
  <path class="cls-2" d="M43.75,19.14h-1.59l-.15-1.03c-.43,.47-.86,.8-1.29,.98-.43,.18-.99,.27-1.66,.27-1.35,0-2.43-.45-3.26-1.34-.82-.89-1.23-2.07-1.23-3.54s.44-2.76,1.33-3.69,2.05-1.4,3.51-1.4c1.17,0,2.13,.3,2.89,.9,.75,.6,1.19,1.45,1.32,2.56h-2.41c-.26-.9-.87-1.35-1.84-1.35-.54,0-.98,.15-1.33,.44-.35,.29-.6,.65-.73,1.07-.13,.42-.2,.89-.2,1.42,0,.88,.19,1.6,.57,2.14,.38,.55,.99,.82,1.83,.82,.58,0,1.02-.13,1.32-.4,.3-.26,.52-.68,.65-1.24h-1.73v-1.8h4.01v5.2Z"/>
  <path class="cls-1" d="M70.31,15.41c-.18,1.22-.82,1.84-1.92,1.84-.68,0-1.22-.26-1.63-.78-.41-.52-.61-1.21-.61-2.08s.2-1.61,.61-2.14c.41-.53,.95-.8,1.63-.8,1.05,0,1.68,.5,1.89,1.5h2.45c-.08-1.09-.54-1.96-1.37-2.61-.83-.65-1.8-.98-2.92-.98-1.42,0-2.58,.46-3.47,1.39-.89,.92-1.34,2.12-1.34,3.58s.43,2.67,1.29,3.61,2.02,1.41,3.48,1.41c1.89,0,3.2-.75,3.94-2.26,.17-.34,.28-.61,.34-.82,.06-.21,.09-.5,.1-.86h-2.48Z"/>
  <path class="cls-1" d="M79.34,13.04c.67,.67,1.01,1.55,1.01,2.63s-.34,1.98-1.01,2.66c-.67,.68-1.55,1.03-2.63,1.03s-1.97-.34-2.65-1.02c-.67-.68-1.01-1.56-1.01-2.65s.34-1.96,1.03-2.64c.68-.68,1.57-1.02,2.66-1.02s1.94,.34,2.61,1.01Zm-3.67,1.19c-.24,.34-.36,.83-.36,1.45s.12,1.14,.36,1.49,.58,.52,1.02,.52,.78-.18,1.01-.53c.24-.35,.36-.85,.36-1.49s-.12-1.11-.36-1.45c-.24-.34-.59-.51-1.03-.51s-.76,.17-1,.52Z"/>
  <path class="cls-1" d="M85.87,14.17c-.36-.09-.66-.13-.9-.13-1.14,0-1.72,.65-1.72,1.96v3.15h-2.26v-6.92h2.17v1.18c.23-.46,.52-.79,.85-1.01,.34-.22,.76-.33,1.27-.33,.19,0,.38,.02,.59,.07v2.04Z"/>
  <path class="cls-1" d="M87.64,16.23c0,.51,.15,.9,.44,1.19,.28,.28,.66,.42,1.15,.42,.57,0,1.01-.27,1.3-.8h2.13c-.22,.74-.64,1.31-1.24,1.72-.6,.4-1.34,.6-2.22,.6-1.1,0-2-.32-2.71-.97s-1.07-1.52-1.07-2.62,.34-1.98,1.03-2.67c.69-.69,1.58-1.04,2.67-1.04s2.03,.36,2.69,1.07,.98,1.68,.98,2.91v.2h-5.15Zm2.49-2.28c-.25-.25-.58-.37-1-.37-.83,0-1.32,.45-1.46,1.35h2.88c-.04-.41-.18-.74-.42-.98Z"/>
  <path class="cls-2" d="M104.27,11.61h-5.16v1.65h4.72v1.93h-4.72v1.86h5.28v2.09h-7.76V9.6h7.64v2.01Z"/>
  <path class="cls-2" d="M105.14,9.6h4.97c.95,0,1.72,.23,2.33,.7,.6,.47,.9,1.15,.9,2.06,0,1.11-.49,1.89-1.47,2.33,.63,.21,1.04,.63,1.21,1.23,.12,.39,.21,1.07,.29,2.02,0,.03,0,.09,.01,.18,0,.09,.02,.16,.02,.19s.01,.09,.02,.17c0,.08,.02,.13,.03,.17,.01,.04,.03,.09,.05,.15,.02,.06,.04,.12,.07,.17,.03,.05,.06,.1,.1,.15h-2.53c-.07-.17-.13-.36-.16-.58-.04-.22-.06-.48-.08-.8-.02-.31-.03-.52-.04-.62-.06-.57-.22-.97-.47-1.21s-.66-.35-1.23-.35h-1.53v3.55h-2.49V9.6Zm4.25,4.22c.47,0,.84-.08,1.11-.24,.26-.16,.4-.47,.4-.94,0-.74-.51-1.11-1.53-1.11h-1.73v2.29h1.76Z"/>
  <path class="cls-2" d="M114.2,9.6h4.19c1.17,0,2.09,.25,2.76,.76,.67,.51,1.01,1.33,1.01,2.45,0,1.04-.3,1.82-.91,2.35-.61,.53-1.42,.79-2.45,.79h-2.1v3.19h-2.49V9.6Zm3.9,4.42c.26,0,.47-.01,.63-.03,.16-.02,.33-.07,.5-.14s.3-.19,.39-.36c.08-.17,.13-.38,.13-.65,0-.44-.13-.75-.38-.93s-.61-.27-1.07-.27h-1.61v2.39h1.41Z"/>
  <g>
    <path class="cls-2" d="M41.46,21l-1.42,5.15h-.65l-1.12-4.06c-.06-.21-.1-.37-.11-.47h-.01l-.14,.61-1.1,3.92h-.69l-1.37-5.15h.7l.79,3.38c.11,.44,.17,.77,.2,.98,0,.04,0,.07,0,.07h.01c.09-.45,.17-.76,.22-.96l.98-3.48h.83l.73,2.6c.18,.65,.32,1.26,.4,1.83h.01c.05-.28,.13-.65,.25-1.12l.81-3.31h.69Z"/>
    <path class="cls-2" d="M45.02,26.15h-.64v-2.35c0-.3-.07-.53-.2-.69-.13-.15-.33-.23-.59-.23s-.49,.09-.69,.27c-.2,.18-.3,.5-.3,.96v2.04h-.63v-5.15h.63v1.85c.3-.34,.67-.51,1.12-.51,.24,0,.47,.05,.69,.15s.37,.25,.46,.45c.09,.2,.13,.49,.13,.85v2.36Z"/>
    <path class="cls-2" d="M49.16,24.45h-2.79c.03,.41,.14,.73,.35,.95,.21,.22,.47,.33,.79,.33,.24,0,.44-.06,.61-.19s.29-.32,.38-.58l.65,.08c-.11,.39-.3,.69-.58,.9s-.63,.31-1.05,.31c-.56,0-1-.17-1.31-.51-.32-.34-.47-.81-.47-1.41s.15-1.06,.46-1.43c.31-.37,.74-.55,1.29-.55,.27,0,.53,.06,.79,.18,.25,.12,.47,.32,.64,.61,.18,.29,.26,.73,.26,1.32Zm-.65-.52c-.03-.38-.14-.65-.35-.82-.21-.17-.44-.25-.69-.25-.3,0-.54,.1-.73,.3-.19,.2-.3,.46-.33,.77h2.11Z"/>
    <path class="cls-2" d="M51.88,22.54l-.22,.58c-.16-.09-.31-.14-.46-.14-.24,0-.42,.11-.54,.32s-.18,.51-.18,.89v1.96h-.63v-3.73h.58v.56h.01c.2-.43,.46-.65,.79-.65,.22,0,.43,.07,.65,.2Z"/>
    <path class="cls-2" d="M55.46,24.45h-2.79c.03,.41,.14,.73,.35,.95,.21,.22,.47,.33,.79,.33,.24,0,.44-.06,.61-.19s.29-.32,.38-.58l.65,.08c-.11,.39-.3,.69-.58,.9s-.63,.31-1.05,.31c-.56,0-1-.17-1.31-.51-.32-.34-.47-.81-.47-1.41s.15-1.06,.46-1.43c.31-.37,.74-.55,1.29-.55,.27,0,.53,.06,.79,.18,.25,.12,.47,.32,.64,.61,.18,.29,.26,.73,.26,1.32Zm-.65-.52c-.03-.38-.14-.65-.35-.82-.21-.17-.44-.25-.69-.25-.3,0-.54,.1-.73,.3-.19,.2-.3,.46-.33,.77h2.11Z"/>
    <path class="cls-2" d="M61.1,23.41c.32,.1,.57,.26,.73,.48s.24,.48,.24,.76-.07,.55-.22,.79c-.15,.24-.35,.42-.62,.53-.27,.11-.63,.17-1.09,.17h-1.97v-5.15h1.93c.63,0,1.07,.14,1.32,.41,.26,.27,.38,.57,.38,.91,0,.22-.06,.43-.18,.62-.12,.19-.3,.35-.54,.47Zm-2.25-.25h1.12c.23,0,.42-.01,.58-.04,.16-.03,.29-.09,.41-.2,.12-.11,.18-.28,.18-.51,0-.24-.06-.42-.18-.54-.12-.12-.26-.19-.43-.21-.17-.03-.38-.04-.64-.04h-1.03v1.55Zm0,2.38h1.28c.46,0,.78-.08,.96-.24,.18-.16,.27-.37,.27-.65s-.09-.5-.28-.65c-.19-.16-.53-.23-1.03-.23h-1.19v1.77Z"/>
    <path class="cls-2" d="M65.89,26.15h-.57v-.55h-.02c-.29,.42-.68,.64-1.17,.64-.26,0-.5-.06-.72-.18s-.37-.29-.44-.5c-.07-.21-.11-.49-.11-.82v-2.31h.63v2.07c0,.33,.02,.57,.05,.71,.03,.14,.11,.26,.25,.35,.13,.09,.29,.14,.48,.14,.24,0,.46-.08,.67-.25s.32-.51,.32-1.03v-1.99h.63v3.73Z"/>
    <path class="cls-2" d="M68.9,23.47c-.03-.2-.11-.36-.25-.46-.14-.1-.33-.15-.57-.15s-.44,.04-.59,.12c-.15,.08-.22,.2-.22,.36,0,.15,.06,.25,.18,.32,.12,.06,.35,.14,.7,.23,.39,.1,.69,.19,.88,.27,.2,.08,.35,.19,.46,.32,.11,.14,.16,.33,.16,.58,0,.33-.14,.61-.41,.84s-.63,.34-1.09,.34-.84-.1-1.11-.3-.43-.5-.49-.9l.63-.09c.03,.26,.13,.45,.29,.58,.16,.13,.38,.19,.67,.19s.49-.06,.64-.17c.15-.12,.22-.26,.22-.42,0-.11-.03-.2-.1-.27-.07-.07-.15-.12-.25-.15-.1-.03-.33-.09-.69-.18-.53-.13-.88-.28-1.05-.46-.17-.18-.25-.4-.25-.65,0-.31,.12-.57,.37-.77,.25-.2,.58-.3,1-.3,.45,0,.79,.09,1.04,.26,.25,.17,.4,.44,.44,.78l-.62,.08Z"/>
    <path class="cls-2" d="M71,21.72h-.63v-.72h.63v.72Zm0,4.43h-.63v-3.73h.63v3.73Z"/>
    <path class="cls-2" d="M74.96,26.15h-.64v-2.27c0-.38-.07-.64-.21-.79-.14-.14-.33-.21-.57-.21-.19,0-.36,.05-.53,.14-.17,.09-.29,.22-.36,.39-.07,.17-.11,.4-.11,.71v2.04h-.63v-3.73h.57v.53h.01c.13-.2,.3-.36,.49-.46,.2-.1,.42-.15,.68-.15,.2,0,.39,.04,.58,.11,.19,.07,.34,.18,.45,.32s.18,.29,.21,.45c.03,.16,.04,.37,.04,.65v2.29Z"/>
    <path class="cls-2" d="M79.11,24.45h-2.79c.03,.41,.14,.73,.35,.95,.21,.22,.47,.33,.79,.33,.24,0,.44-.06,.61-.19s.29-.32,.38-.58l.65,.08c-.11,.39-.3,.69-.58,.9s-.63,.31-1.05,.31c-.56,0-1-.17-1.31-.51-.32-.34-.47-.81-.47-1.41s.15-1.06,.46-1.43c.31-.37,.74-.55,1.29-.55,.27,0,.53,.06,.79,.18,.25,.12,.47,.32,.64,.61,.18,.29,.26,.73,.26,1.32Zm-.65-.52c-.03-.38-.14-.65-.35-.82-.21-.17-.44-.25-.69-.25-.3,0-.54,.1-.73,.3-.19,.2-.3,.46-.33,.77h2.11Z"/>
    <path class="cls-2" d="M81.9,23.47c-.03-.2-.11-.36-.25-.46-.14-.1-.33-.15-.57-.15s-.44,.04-.59,.12c-.15,.08-.22,.2-.22,.36,0,.15,.06,.25,.18,.32,.12,.06,.35,.14,.7,.23,.39,.1,.69,.19,.88,.27,.2,.08,.35,.19,.46,.32,.11,.14,.16,.33,.16,.58,0,.33-.14,.61-.41,.84s-.63,.34-1.09,.34-.84-.1-1.11-.3-.43-.5-.49-.9l.63-.09c.03,.26,.13,.45,.29,.58,.16,.13,.38,.19,.67,.19s.49-.06,.64-.17c.15-.12,.22-.26,.22-.42,0-.11-.03-.2-.1-.27-.07-.07-.15-.12-.25-.15-.1-.03-.33-.09-.69-.18-.53-.13-.88-.28-1.05-.46-.17-.18-.25-.4-.25-.65,0-.31,.12-.57,.37-.77,.25-.2,.58-.3,1-.3,.45,0,.79,.09,1.04,.26,.25,.17,.4,.44,.44,.78l-.62,.08Z"/>
    <path class="cls-2" d="M85.45,23.47c-.03-.2-.11-.36-.25-.46-.14-.1-.33-.15-.57-.15s-.44,.04-.59,.12c-.15,.08-.22,.2-.22,.36,0,.15,.06,.25,.18,.32,.12,.06,.35,.14,.7,.23,.39,.1,.69,.19,.88,.27,.2,.08,.35,.19,.46,.32,.11,.14,.16,.33,.16,.58,0,.33-.14,.61-.41,.84s-.63,.34-1.09,.34-.84-.1-1.11-.3-.43-.5-.49-.9l.63-.09c.03,.26,.13,.45,.29,.58,.16,.13,.38,.19,.67,.19s.49-.06,.64-.17c.15-.12,.22-.26,.22-.42,0-.11-.03-.2-.1-.27-.07-.07-.15-.12-.25-.15-.1-.03-.33-.09-.69-.18-.53-.13-.88-.28-1.05-.46-.17-.18-.25-.4-.25-.65,0-.31,.12-.57,.37-.77,.25-.2,.58-.3,1-.3,.45,0,.79,.09,1.04,.26,.25,.17,.4,.44,.44,.78l-.62,.08Z"/>
    <path class="cls-2" d="M93.5,26.15h-.86c-.51-.81-.83-1.31-.96-1.49-.12-.19-.25-.34-.39-.48-.14-.13-.27-.22-.39-.25-.12-.04-.28-.05-.48-.05h-.79v2.27h-.68v-5.15h2.28c.31,0,.57,.02,.78,.06s.4,.12,.56,.25,.28,.29,.37,.48c.09,.19,.13,.4,.13,.61,0,.39-.12,.7-.37,.94-.25,.24-.6,.39-1.08,.45h0c.34,.17,.67,.48,.97,.95l.9,1.4Zm-3.86-2.88h1.46c.3,0,.53-.03,.7-.08s.31-.15,.41-.29c.1-.15,.15-.31,.15-.49,0-.23-.09-.43-.26-.6-.17-.16-.45-.25-.85-.25h-1.63v1.7Z"/>
    <path class="cls-2" d="M97.03,26.15h-.57v-.55h-.02c-.29,.42-.68,.64-1.17,.64-.26,0-.5-.06-.72-.18s-.37-.29-.44-.5c-.07-.21-.11-.49-.11-.82v-2.31h.63v2.07c0,.33,.02,.57,.05,.71,.03,.14,.11,.26,.25,.35,.13,.09,.29,.14,.48,.14,.24,0,.46-.08,.67-.25s.32-.51,.32-1.03v-1.99h.63v3.73Z"/>
    <path class="cls-2" d="M101.01,26.15h-.64v-2.27c0-.38-.07-.64-.21-.79-.14-.14-.33-.21-.57-.21-.19,0-.36,.05-.53,.14-.17,.09-.29,.22-.36,.39-.07,.17-.11,.4-.11,.71v2.04h-.63v-3.73h.57v.53h.01c.13-.2,.3-.36,.49-.46,.2-.1,.42-.15,.68-.15,.2,0,.39,.04,.58,.11,.19,.07,.34,.18,.45,.32s.18,.29,.21,.45c.03,.16,.04,.37,.04,.65v2.29Z"/>
    <path class="cls-2" d="M104,23.47c-.03-.2-.11-.36-.25-.46-.14-.1-.33-.15-.57-.15s-.44,.04-.59,.12c-.15,.08-.22,.2-.22,.36,0,.15,.06,.25,.18,.32,.12,.06,.35,.14,.7,.23,.39,.1,.69,.19,.88,.27,.2,.08,.35,.19,.46,.32,.11,.14,.16,.33,.16,.58,0,.33-.14,.61-.41,.84s-.63,.34-1.09,.34-.84-.1-1.11-.3-.43-.5-.49-.9l.63-.09c.03,.26,.13,.45,.29,.58,.16,.13,.38,.19,.67,.19s.49-.06,.64-.17c.15-.12,.22-.26,.22-.42,0-.11-.03-.2-.1-.27-.07-.07-.15-.12-.25-.15-.1-.03-.33-.09-.69-.18-.53-.13-.88-.28-1.05-.46-.17-.18-.25-.4-.25-.65,0-.31,.12-.57,.37-.77,.25-.2,.58-.3,1-.3,.45,0,.79,.09,1.04,.26,.25,.17,.4,.44,.44,.78l-.62,.08Z"/>
    <path class="cls-2" d="M110.39,23.41c.32,.1,.57,.26,.73,.48s.24,.48,.24,.76-.07,.55-.22,.79c-.15,.24-.35,.42-.62,.53-.27,.11-.63,.17-1.09,.17h-1.97v-5.15h1.93c.63,0,1.07,.14,1.32,.41,.26,.27,.38,.57,.38,.91,0,.22-.06,.43-.18,.62-.12,.19-.3,.35-.54,.47Zm-2.25-.25h1.12c.23,0,.42-.01,.58-.04,.16-.03,.29-.09,.41-.2,.12-.11,.18-.28,.18-.51,0-.24-.06-.42-.18-.54-.12-.12-.26-.19-.43-.21-.17-.03-.38-.04-.64-.04h-1.03v1.55Zm0,2.38h1.28c.46,0,.78-.08,.96-.24,.18-.16,.27-.37,.27-.65s-.09-.5-.28-.65c-.19-.16-.53-.23-1.03-.23h-1.19v1.77Z"/>
    <path class="cls-2" d="M115.4,24.45h-2.79c.03,.41,.14,.73,.35,.95,.21,.22,.47,.33,.79,.33,.24,0,.44-.06,.61-.19s.29-.32,.38-.58l.65,.08c-.11,.39-.3,.69-.58,.9s-.63,.31-1.05,.31c-.56,0-1-.17-1.31-.51-.32-.34-.47-.81-.47-1.41s.15-1.06,.46-1.43c.31-.37,.74-.55,1.29-.55,.27,0,.53,.06,.79,.18,.25,.12,.47,.32,.64,.61,.18,.29,.26,.73,.26,1.32Zm-.65-.52c-.03-.38-.14-.65-.35-.82-.21-.17-.44-.25-.69-.25-.3,0-.54,.1-.73,.3-.19,.2-.3,.46-.33,.77h2.11Z"/>
    <path class="cls-2" d="M117.57,26.15c-.19,.04-.35,.06-.47,.06-.28,0-.48-.05-.6-.15-.13-.1-.2-.22-.23-.37-.03-.15-.04-.36-.04-.63v-2.15h-.46v-.49h.46v-.93l.63-.38v1.31h.63v.49h-.63v2.18c0,.19,.02,.32,.06,.4,.04,.08,.14,.12,.29,.12,.09,0,.19,0,.28-.03l.09,.56Z"/>
    <path class="cls-2" d="M119.52,26.15c-.19,.04-.35,.06-.47,.06-.28,0-.48-.05-.6-.15-.13-.1-.2-.22-.23-.37-.03-.15-.04-.36-.04-.63v-2.15h-.46v-.49h.46v-.93l.63-.38v1.31h.63v.49h-.63v2.18c0,.19,.02,.32,.06,.4,.04,.08,.14,.12,.29,.12,.09,0,.19,0,.28-.03l.09,.56Z"/>
    <path class="cls-2" d="M123.25,24.45h-2.79c.03,.41,.14,.73,.35,.95,.21,.22,.47,.33,.79,.33,.24,0,.44-.06,.61-.19s.29-.32,.38-.58l.65,.08c-.11,.39-.3,.69-.58,.9s-.63,.31-1.05,.31c-.56,0-1-.17-1.31-.51-.32-.34-.47-.81-.47-1.41s.15-1.06,.46-1.43c.31-.37,.74-.55,1.29-.55,.27,0,.53,.06,.79,.18,.25,.12,.47,.32,.64,.61,.18,.29,.26,.73,.26,1.32Zm-.65-.52c-.03-.38-.14-.65-.35-.82-.21-.17-.44-.25-.69-.25-.3,0-.54,.1-.73,.3-.19,.2-.3,.46-.33,.77h2.11Z"/>
    <path class="cls-2" d="M125.97,22.54l-.22,.58c-.16-.09-.31-.14-.46-.14-.24,0-.42,.11-.54,.32-.12,.21-.18,.51-.18,.89v1.96h-.63v-3.73h.58v.56h.01c.2-.43,.46-.65,.79-.65,.22,0,.43,.07,.65,.2Z"/>
    <path class="cls-2" d="M127.19,26.15h-.72v-.72h.72v.72Z"/>
  </g>
  <path class="cls-2" d="M63.5,12.22h-2.32l-1.33,4.57-1.34-4.57h-2.41l2.43,6.46c-.02,.11-.05,.21-.07,.28h-.02s-.34,1.18-.34,1.18l2.63-.07,.54-1.64h0c.02-.06,.04-.11,.06-.17,.72-2.01,1.45-4.03,2.17-6.04Z"/>
</svg>