<?xml version="1.0" encoding="utf-8"?>
<!-- Generator: Adobe Illustrator 26.4.1, SVG Export Plug-In . SVG Version: 6.00 Build 0)  -->
<svg version="1.1" id="Layer_1" xmlns="http://www.w3.org/2000/svg" xmlns:xlink="http://www.w3.org/1999/xlink" x="0px" y="0px"
	 viewBox="0 0 158 55.3" style="enable-background:new 0 0 158 55.3;" xml:space="preserve">
<style type="text/css">
	.st0{fill:#666666;}
	.st1{fill:#EB7D29;}
</style>
<path class="st0" d="M36.1,34.5c1.2,0.7,2.6,1.1,4.1,1.1c0.5,0,0.9,0,1.4-0.1c1-0.2,1.9-0.5,2.8-1c0.4-0.2,0.7-0.4,1-0.7
	c0.8-0.6,1.5-1.4,2-2.3c0.7-1.2,1.1-2.6,1.1-4.1c0-1.5-0.4-2.9-1.1-4.1c-0.5-0.9-1.2-1.7-2-2.3c-0.3-0.3-0.7-0.5-1-0.7
	c-0.8-0.5-1.8-0.8-2.8-1C41.2,19,40.7,19,40.3,19c-1.5,0-2.9,0.4-4.1,1.1c-1.3,0.7-2.3,1.8-3,3c-0.7,1.2-1.1,2.6-1.1,4.1
	c0,1.5,0.4,2.9,1.1,4.1C33.8,32.7,34.9,33.7,36.1,34.5z M40.3,23.1h0.3c0,0,0,0,0,0c2.1,0.2,3.8,2,3.8,4.1s-1.7,4-3.8,4.1
	c0,0,0,0,0,0h-0.3c-2.3,0-4.1-1.9-4.1-4.1S38,23.1,40.3,23.1z"/>
<path class="st1" d="M64.8,23.2C64.8,23.2,64.8,23.2,64.8,23.2c-0.2-1.4-0.6-2.7-1-4c0,0,0-0.1,0-0.1c-0.4-1-0.8-2-1.2-2.9
	c-0.1-0.3-0.3-0.6-0.5-0.9c-0.1-0.1-0.1-0.3-0.2-0.4c-0.3-0.4-0.5-0.9-0.8-1.3c-0.2-0.4-0.5-0.7-0.7-1.1c-0.2-0.3-0.4-0.6-0.6-0.8
	c-0.3-0.3-0.5-0.6-0.8-0.9c-0.3-0.4-0.7-0.8-1.1-1.1l0-0.1l2.9-2.9h0l2-2c-0.3-0.3-0.7-0.5-1.1-0.7c-0.4-0.3-0.9-0.6-1.3-0.8
	c-0.4-0.2-0.8-0.5-1.3-0.7l-3.1,3.1L53.3,8l-4.2,4.2c0,0,0,0,0,0l-0.6,0.6V13c0,0-0.1,0-0.1-0.1c-0.8-0.5-1.7-0.9-2.7-1.2
	c-0.5-0.2-0.9-0.3-1.4-0.4c-1.3-0.3-2.7-0.5-4.1-0.5s-2.8,0.2-4.1,0.5c-1.5,0.4-2.9,1-4.1,1.7c-1,0.6-1.9,1.2-2.7,1.9
	c-0.5,0.5-1,0.9-1.5,1.5c-0.7,0.8-1.4,1.7-1.9,2.7c-0.7,1.3-1.3,2.7-1.7,4.1c-0.3,1.3-0.5,2.7-0.5,4.1s0.2,2.8,0.5,4.1
	c0.4,1.4,0.9,2.8,1.6,4c0,0,0,0.1,0.1,0.1c0.6,1,1.2,1.9,1.9,2.7c0.1,0.2,0.3,0.3,0.4,0.5l2.9-2.9c-0.1-0.1-0.1-0.2-0.2-0.2
	c-0.8-0.9-1.5-2-2.1-3.2c-0.1-0.3-0.3-0.6-0.4-1c-0.5-1.3-0.7-2.7-0.7-4.1c0-1.5,0.2-2.8,0.7-4.1c0.5-1.5,1.4-2.9,2.5-4.1
	c0.3-0.3,0.6-0.7,1-1c1.2-1.1,2.6-1.9,4.1-2.5c1.3-0.5,2.7-0.7,4.1-0.7c1.1,0,2.1,0.1,3.1,0.4c0.4,0.1,0.7,0.2,1,0.3
	c0.3,0.1,0.7,0.2,1,0.4c0.6,0.3,1.2,0.6,1.8,1c0.5,0.3,0.9,0.7,1.4,1.1c0.1,0.1,0.2,0.2,0.3,0.3l5.9-5.9l0,0l0.1-0.1l0,0l-0.1,0.1
	c0.4,0.3,0.7,0.7,1,1.1c0.4,0.4,0.7,0.8,1,1.3v0h0c0.1,0.2,0.3,0.4,0.4,0.6c0.3,0.5,0.7,1,0.9,1.5c0.4,0.7,0.7,1.3,1,2
	c0,0.1,0.1,0.2,0.1,0.2c0.2,0.5,0.4,1,0.6,1.6c0.2,0.8,0.5,1.5,0.6,2.3c0.3,1.3,0.4,2.7,0.4,4.1c0,1.4-0.1,2.8-0.4,4.1
	c-0.2,0.8-0.4,1.6-0.6,2.3c-0.2,0.6-0.4,1.2-0.7,1.8c-0.3,0.7-0.7,1.4-1,2c-0.4,0.7-0.9,1.4-1.4,2.1h0v0c-0.3,0.4-0.7,0.9-1,1.3
	c-0.9,1.1-2,2-3.1,2.9h0v0c-1.2,0.9-2.4,1.6-3.8,2.3c-0.1,0.1-0.2,0.1-0.3,0.2c-1.3,0.6-2.7,1-4.1,1.3c-1.3,0.3-2.7,0.4-4.1,0.4
	c-1.2,0-2.3-0.1-3.4-0.3l-3.5,3.5c0.9,0.3,1.8,0.5,2.7,0.6c1.3,0.2,2.7,0.3,4.1,0.3c1.4,0,2.8-0.1,4.1-0.3c1.4-0.2,2.8-0.6,4.1-1.1
	c1.4-0.5,2.8-1.2,4.1-1.9c0.4-0.3,0.9-0.5,1.3-0.8c0.9-0.6,1.7-1.2,2.5-1.9c0.1-0.1,0.2-0.2,0.3-0.3c0.7-0.6,1.3-1.3,2-2
	c0.3-0.3,0.5-0.6,0.8-0.9c0.5-0.6,1-1.2,1.4-1.9c0.3-0.4,0.6-0.9,0.8-1.3c0.1-0.1,0.1-0.3,0.2-0.4c0.7-1.2,1.2-2.4,1.7-3.8
	c0,0,0-0.1,0-0.1c0.5-1.3,0.8-2.6,1-4c0,0,0,0,0,0c0.2-1.3,0.3-2.7,0.3-4.1C65.1,25.9,65,24.5,64.8,23.2z"/>
<path class="st1" d="M35.4,41.9c0.2,0.1,0.4,0.1,0.7,0.2c1.3,0.3,2.7,0.5,4.1,0.5s2.8-0.2,4.1-0.5c0.5-0.1,0.9-0.3,1.4-0.4
	c1-0.3,1.9-0.8,2.8-1.3c0.4-0.2,0.7-0.4,1-0.7c0.6-0.4,1.1-0.8,1.6-1.3c0.5-0.5,1-0.9,1.5-1.5c0.7-0.8,1.4-1.7,1.9-2.7
	c0.2-0.3,0.3-0.6,0.5-0.9c0.5-1,0.9-2.1,1.2-3.2c0.3-1.3,0.5-2.7,0.5-4.1c0-1.4-0.2-2.8-0.5-4.1c-0.1-0.2-0.1-0.5-0.2-0.7
	c-0.3-0.9-0.6-1.7-1-2.5c-0.2-0.3-0.3-0.6-0.5-0.9c-0.1-0.2-0.2-0.4-0.3-0.6c0,0,0,0,0,0l-3,3c0.3,0.5,0.5,1.1,0.7,1.7
	c0.3,0.9,0.5,1.8,0.6,2.8c0,0.4,0.1,0.9,0.1,1.3c0,1.5-0.2,2.8-0.7,4.1c-0.4,1.2-1,2.2-1.7,3.2c-0.2,0.3-0.5,0.6-0.7,0.9
	c-0.3,0.3-0.6,0.7-1,1c-0.4,0.4-0.9,0.7-1.4,1.1c-0.9,0.6-1.8,1-2.8,1.4c-0.3,0.1-0.7,0.2-1,0.3c-1,0.3-2,0.4-3.1,0.4
	c-0.4,0-0.9,0-1.3-0.1c-1-0.1-1.9-0.3-2.8-0.6c-0.6-0.2-1.1-0.4-1.7-0.7l-3,3l-2,2c0,0,0,0,0,0l-0.9,0.9c-0.2-0.1-0.4-0.3-0.6-0.4v0
	h0c-0.9-0.6-1.7-1.3-2.4-2.1c-0.6-0.6-1.2-1.3-1.7-2v0h0c-0.3-0.4-0.6-0.8-0.8-1.2c-0.6-0.9-1.1-1.9-1.6-2.9c-0.6-1.3-1-2.7-1.3-4.1
	c-0.3-1.3-0.4-2.7-0.4-4.1c0-1.4,0.1-2.8,0.4-4.1c0.3-1.4,0.7-2.8,1.3-4.1c0.6-1.5,1.5-2.9,2.4-4.1h0v0c1.2-1.6,2.6-3,4.1-4.1h0v0
	c1.3-1,2.7-1.8,4.1-2.4c1.3-0.6,2.7-1,4.1-1.3c1.3-0.3,2.7-0.4,4.1-0.4s2.8,0.1,4.1,0.4c1.1,0.2,2.1,0.5,3.2,0.9l3.2-3.2
	c-0.7-0.3-1.4-0.6-2.2-0.9c-1.3-0.5-2.7-0.8-4.1-1.1c-1.3-0.2-2.7-0.3-4.1-0.3c-1.4,0-2.8,0.1-4.1,0.3c-1.4,0.2-2.8,0.6-4.1,1.1
	c-1.4,0.5-2.8,1.2-4.1,1.9c-0.4,0.3-0.9,0.5-1.3,0.8c-1,0.7-1.9,1.4-2.8,2.2c-0.7,0.6-1.3,1.3-2,2c-0.8,0.9-1.5,1.8-2.2,2.8
	c-0.3,0.4-0.6,0.9-0.8,1.3c-0.8,1.3-1.4,2.7-1.9,4.1c-0.5,1.3-0.8,2.7-1.1,4.1c-0.2,1.3-0.3,2.7-0.3,4.1c0,1.4,0.1,2.8,0.3,4.1
	c0.2,1.4,0.6,2.8,1.1,4.1c0.5,1.4,1.2,2.8,1.9,4.1c0.3,0.4,0.5,0.9,0.8,1.3c0.1,0.2,0.2,0.3,0.3,0.4c0.6,0.8,1.2,1.6,1.9,2.4
	c0.3,0.3,0.5,0.6,0.8,0.8c0.4,0.4,0.8,0.8,1.2,1.1c0.6,0.5,1.2,1,1.8,1.4c0,0,0,0,0,0l-1.7,1.7l-0.4,0.4l-3,3
	c0.3,0.3,0.7,0.5,1.1,0.7c0.4,0.3,0.9,0.6,1.3,0.8c0.4,0.2,0.8,0.5,1.3,0.7l3.1-3.1l2.3-2.3l2.8-2.8l2.5-2.5L35.4,41.9z"/>
</svg>
