<?xml version="1.0" encoding="utf-8"?>
<!-- Generator: Adobe Illustrator 26.4.1, SVG Export Plug-In . SVG Version: 6.00 Build 0)  -->
<svg version="1.1" id="Layer_1" xmlns="http://www.w3.org/2000/svg" xmlns:xlink="http://www.w3.org/1999/xlink" x="0px" y="0px"
	 viewBox="0 0 153 44" style="enable-background:new 0 0 153 44;" xml:space="preserve">
<style type="text/css">
	.st0{fill:#666666;}
	.st1{fill:#EB7D29;}
</style>
<path class="st0" d="M26,26.5c0.8,0.4,1.7,0.7,2.6,0.7c0.3,0,0.6,0,0.9-0.1c0.6-0.1,1.2-0.3,1.7-0.6c0.2-0.1,0.4-0.3,0.7-0.4
	c0.5-0.4,0.9-0.9,1.3-1.5c0.4-0.8,0.7-1.7,0.7-2.6s-0.3-1.8-0.7-2.6c-0.3-0.6-0.8-1.1-1.3-1.5c-0.2-0.2-0.4-0.3-0.7-0.4
	c-0.5-0.3-1.1-0.5-1.7-0.6c-0.3,0-0.6-0.1-0.9-0.1c-1,0-1.8,0.3-2.6,0.7c-0.8,0.5-1.5,1.1-1.9,1.9c-0.4,0.8-0.7,1.7-0.7,2.6
	s0.3,1.8,0.7,2.6C24.5,25.4,25.2,26.1,26,26.5z M28.6,19.4h0.2c0,0,0,0,0,0c1.3,0.1,2.4,1.2,2.4,2.6s-1.1,2.5-2.4,2.6c0,0,0,0,0,0
	h-0.2c-1.4,0-2.6-1.2-2.6-2.6S27.2,19.4,28.6,19.4z"/>
<path class="st1" d="M44.1,19.4C44.1,19.4,44.1,19.4,44.1,19.4c-0.1-0.9-0.4-1.7-0.7-2.6c0,0,0,0,0-0.1c-0.2-0.6-0.5-1.2-0.8-1.8
	c-0.1-0.2-0.2-0.4-0.3-0.5c0-0.1-0.1-0.2-0.1-0.2c-0.2-0.3-0.3-0.6-0.5-0.8c-0.1-0.2-0.3-0.4-0.5-0.7c-0.1-0.2-0.3-0.4-0.4-0.5
	c-0.2-0.2-0.3-0.4-0.5-0.6c-0.2-0.2-0.4-0.5-0.7-0.7l0,0l1.9-1.9h0l1.2-1.2c-0.2-0.2-0.4-0.3-0.7-0.5c-0.3-0.2-0.5-0.4-0.8-0.5
	c-0.3-0.2-0.5-0.3-0.8-0.4l-2,2l-1.6,1.6l-2.7,2.7c0,0,0,0,0,0l-0.4,0.4v0.1c0,0,0,0-0.1,0c-0.5-0.3-1.1-0.6-1.7-0.8
	c-0.3-0.1-0.6-0.2-0.9-0.3c-0.8-0.2-1.7-0.3-2.6-0.3s-1.8,0.1-2.6,0.3c-0.9,0.2-1.8,0.6-2.6,1.1c-0.6,0.3-1.2,0.8-1.7,1.2
	c-0.3,0.3-0.6,0.6-0.9,0.9c-0.5,0.5-0.9,1.1-1.2,1.7c-0.5,0.8-0.8,1.7-1.1,2.6c-0.2,0.8-0.3,1.7-0.3,2.6s0.1,1.8,0.3,2.6
	c0.2,0.9,0.6,1.8,1,2.6c0,0,0,0,0,0.1c0.3,0.6,0.8,1.2,1.2,1.7c0.1,0.1,0.2,0.2,0.3,0.3l1.9-1.9c0,0-0.1-0.1-0.1-0.1
	c-0.5-0.6-1-1.3-1.3-2c-0.1-0.2-0.2-0.4-0.2-0.6c-0.3-0.8-0.4-1.7-0.4-2.6s0.2-1.8,0.4-2.6c0.3-1,0.9-1.9,1.6-2.6
	c0.2-0.2,0.4-0.4,0.6-0.6c0.8-0.7,1.6-1.2,2.6-1.6c0.8-0.3,1.7-0.4,2.6-0.4c0.7,0,1.3,0.1,2,0.2c0.2,0.1,0.4,0.1,0.7,0.2
	c0.2,0.1,0.4,0.2,0.6,0.2c0.4,0.2,0.8,0.4,1.1,0.6c0.3,0.2,0.6,0.4,0.9,0.7c0.1,0.1,0.1,0.1,0.2,0.2l3.7-3.7l0,0l0.1-0.1l0,0
	l-0.1,0.1c0.2,0.2,0.4,0.4,0.6,0.7c0.2,0.3,0.4,0.5,0.7,0.8v0h0c0.1,0.1,0.2,0.3,0.3,0.4c0.2,0.3,0.4,0.6,0.6,0.9
	c0.2,0.4,0.5,0.8,0.7,1.3c0,0,0,0.1,0.1,0.1c0.1,0.3,0.3,0.7,0.4,1c0.2,0.5,0.3,1,0.4,1.5c0.2,0.8,0.3,1.7,0.3,2.6
	c0,0.9-0.1,1.8-0.3,2.6c-0.1,0.5-0.2,1-0.4,1.5c-0.1,0.4-0.3,0.8-0.4,1.1c-0.2,0.4-0.4,0.9-0.7,1.3c-0.3,0.5-0.6,0.9-0.9,1.3h0v0
	c-0.2,0.3-0.4,0.5-0.7,0.8c-0.6,0.7-1.2,1.3-2,1.8h0v0c-0.7,0.6-1.5,1-2.4,1.4c-0.1,0-0.1,0.1-0.2,0.1c-0.8,0.4-1.7,0.6-2.6,0.8
	c-0.8,0.2-1.7,0.3-2.6,0.3c-0.7,0-1.5-0.1-2.2-0.2l-2.2,2.2c0.6,0.2,1.1,0.3,1.7,0.4c0.9,0.1,1.7,0.2,2.6,0.2c0.9,0,1.8-0.1,2.6-0.2
	c0.9-0.2,1.8-0.4,2.6-0.7c0.9-0.3,1.8-0.7,2.6-1.2c0.3-0.2,0.6-0.3,0.8-0.5c0.5-0.4,1.1-0.8,1.6-1.2c0.1-0.1,0.1-0.1,0.2-0.2
	c0.4-0.4,0.8-0.8,1.2-1.2c0.2-0.2,0.3-0.4,0.5-0.6c0.3-0.4,0.6-0.8,0.9-1.2c0.2-0.3,0.4-0.5,0.5-0.8c0-0.1,0.1-0.2,0.1-0.2
	c0.4-0.8,0.8-1.5,1.1-2.4c0,0,0,0,0-0.1c0.3-0.8,0.5-1.7,0.7-2.5c0,0,0,0,0,0c0.1-0.8,0.2-1.7,0.2-2.6
	C44.3,21.1,44.2,20.3,44.1,19.4z"/>
<path class="st1" d="M25.6,31.3c0.1,0,0.3,0.1,0.4,0.1c0.8,0.2,1.7,0.3,2.6,0.3s1.8-0.1,2.6-0.3c0.3-0.1,0.6-0.2,0.9-0.3
	c0.6-0.2,1.2-0.5,1.7-0.8c0.2-0.1,0.4-0.3,0.7-0.4c0.4-0.2,0.7-0.5,1-0.8c0.3-0.3,0.6-0.6,0.9-0.9c0.5-0.5,0.9-1.1,1.2-1.7
	c0.1-0.2,0.2-0.4,0.3-0.6c0.3-0.6,0.6-1.3,0.8-2c0.2-0.8,0.3-1.7,0.3-2.6s-0.1-1.8-0.3-2.6c0-0.1-0.1-0.3-0.1-0.4
	c-0.2-0.6-0.4-1.1-0.6-1.6c-0.1-0.2-0.2-0.4-0.3-0.6c-0.1-0.1-0.1-0.2-0.2-0.3c0,0,0,0,0,0l-1.9,1.9c0.2,0.3,0.3,0.7,0.5,1.1
	c0.2,0.6,0.3,1.2,0.4,1.8c0,0.3,0,0.6,0,0.8c0,0.9-0.2,1.8-0.4,2.6c-0.3,0.7-0.6,1.4-1.1,2c-0.1,0.2-0.3,0.4-0.5,0.6
	c-0.2,0.2-0.4,0.4-0.6,0.6c-0.3,0.2-0.6,0.5-0.9,0.7c-0.5,0.4-1.1,0.7-1.7,0.9c-0.2,0.1-0.4,0.1-0.7,0.2c-0.6,0.2-1.3,0.2-2,0.2
	c-0.3,0-0.6,0-0.8,0c-0.6-0.1-1.2-0.2-1.8-0.4c-0.4-0.1-0.7-0.3-1.1-0.5L23,30.1l-1.3,1.3c0,0,0,0,0,0L21.1,32
	c-0.1-0.1-0.3-0.2-0.4-0.3v0h0c-0.5-0.4-1-0.8-1.5-1.3c-0.4-0.4-0.8-0.8-1.1-1.3v0h0c-0.2-0.3-0.4-0.5-0.5-0.8
	c-0.4-0.6-0.7-1.2-1-1.8c-0.4-0.8-0.6-1.7-0.8-2.6c-0.2-0.8-0.3-1.7-0.3-2.6c0-0.9,0.1-1.8,0.3-2.6c0.2-0.9,0.5-1.8,0.8-2.6
	c0.4-0.9,0.9-1.8,1.5-2.6h0v0c0.7-1,1.6-1.9,2.6-2.6h0v0c0.8-0.6,1.7-1.1,2.6-1.5c0.8-0.4,1.7-0.6,2.6-0.8c0.8-0.2,1.7-0.3,2.6-0.3
	c0.9,0,1.8,0.1,2.6,0.3c0.7,0.1,1.4,0.3,2,0.6l2-2c-0.4-0.2-0.9-0.4-1.4-0.6c-0.8-0.3-1.7-0.5-2.6-0.7c-0.9-0.1-1.7-0.2-2.6-0.2
	c-0.9,0-1.8,0.1-2.6,0.2c-0.9,0.2-1.8,0.4-2.6,0.7c-0.9,0.3-1.8,0.7-2.6,1.2c-0.3,0.2-0.6,0.3-0.8,0.5c-0.6,0.4-1.2,0.9-1.8,1.4
	c-0.4,0.4-0.8,0.8-1.2,1.2c-0.5,0.6-1,1.2-1.4,1.8c-0.2,0.3-0.4,0.5-0.5,0.8c-0.5,0.8-0.9,1.7-1.2,2.6c-0.3,0.8-0.5,1.7-0.7,2.6
	c-0.1,0.9-0.2,1.7-0.2,2.6c0,0.9,0.1,1.8,0.2,2.6c0.2,0.9,0.4,1.8,0.7,2.6c0.3,0.9,0.7,1.8,1.2,2.6c0.2,0.3,0.3,0.6,0.5,0.8
	c0.1,0.1,0.1,0.2,0.2,0.3c0.4,0.5,0.8,1,1.2,1.5c0.2,0.2,0.3,0.4,0.5,0.5c0.2,0.2,0.5,0.5,0.7,0.7c0.4,0.3,0.7,0.6,1.1,0.9
	c0,0,0,0,0,0l-1.1,1.1l-0.3,0.3l-1.9,1.9c0.2,0.2,0.4,0.3,0.7,0.5c0.3,0.2,0.5,0.4,0.8,0.5c0.3,0.2,0.5,0.3,0.8,0.4l2-2l1.4-1.4
	l1.8-1.8l1.6-1.6L25.6,31.3z"/>
<path d="M73.5,22"/>
<path class="st0" d="M62.5,19.7c-0.4-0.1-0.7-0.1-0.9-0.1c-1.1,0-1.7,0.7-1.7,2v3.1h-2.3v-6.9h2.2l0,1.2c0.2-0.5,0.5-0.8,0.9-1
	c0.3-0.2,0.8-0.3,1.3-0.3c0.2,0,0.4,0,0.6,0.1V19.7z"/>
<path class="st0" d="M69,19.9c0-0.5,0-0.8-0.1-1.1c-0.1-0.3-0.3-0.5-0.5-0.7c-0.6-0.4-1.4-0.6-2.5-0.6c-2.1,0-3.2,0.8-3.3,2.3h2.1
	c0.1-0.3,0.2-0.6,0.4-0.7c0.2-0.1,0.4-0.2,0.8-0.2c0.7,0,1.1,0.2,1.1,0.7c0,0.3-0.1,0.5-0.4,0.6c-0.1,0-0.6,0.1-1.5,0.3
	c-0.4,0.1-0.7,0.1-0.9,0.1c-0.2,0-0.5,0.1-0.8,0.2c-0.3,0.1-0.5,0.2-0.7,0.4c-0.2,0.1-0.3,0.3-0.4,0.6c-0.1,0.3-0.2,0.5-0.2,0.9
	c0,0.7,0.2,1.2,0.6,1.6c0.4,0.4,1,0.6,1.8,0.6c0.9,0,1.7-0.3,2.3-0.9c0,0.2,0,0.5,0.1,0.7h1h1.3c-0.2-0.4-0.3-1.1-0.3-2V19.9z
	 M66.8,22.1c0,0.4-0.1,0.8-0.4,1c-0.3,0.2-0.6,0.4-1,0.4c-0.3,0-0.5-0.1-0.7-0.2c-0.2-0.1-0.2-0.3-0.2-0.6c0-0.4,0.3-0.7,0.8-0.8
	c0.1,0,0.2,0,0.4-0.1c0.2,0,0.3-0.1,0.4-0.1c0.1,0,0.2,0,0.3-0.1c0.1,0,0.3-0.1,0.4-0.1V22.1z"/>
<path class="st0" d="M56.7,24.7h-1.6l-0.1-1c-0.4,0.5-0.9,0.8-1.3,1c-0.4,0.2-1,0.3-1.7,0.3c-1.3,0-2.4-0.4-3.3-1.3
	c-0.8-0.9-1.2-2.1-1.2-3.5c0-1.5,0.4-2.8,1.3-3.7c0.9-0.9,2.1-1.4,3.5-1.4c1.2,0,2.1,0.3,2.9,0.9c0.8,0.6,1.2,1.5,1.3,2.6h-2.4
	c-0.3-0.9-0.9-1.4-1.8-1.4c-0.5,0-1,0.1-1.3,0.4c-0.4,0.3-0.6,0.6-0.7,1.1c-0.1,0.4-0.2,0.9-0.2,1.4c0,0.9,0.2,1.6,0.6,2.1
	c0.4,0.5,1,0.8,1.8,0.8c0.6,0,1-0.1,1.3-0.4c0.3-0.3,0.5-0.7,0.6-1.2h-1.7v-1.8h4L56.7,24.7z"/>
<path class="st1" d="M83.2,20.9c-0.2,1.2-0.8,1.8-1.9,1.8c-0.7,0-1.2-0.3-1.6-0.8c-0.4-0.5-0.6-1.2-0.6-2.1c0-0.9,0.2-1.6,0.6-2.1
	c0.4-0.5,0.9-0.8,1.6-0.8c1,0,1.7,0.5,1.9,1.5h2.5c-0.1-1.1-0.5-2-1.4-2.6c-0.8-0.7-1.8-1-2.9-1c-1.4,0-2.6,0.5-3.5,1.4
	c-0.9,0.9-1.3,2.1-1.3,3.6c0,1.5,0.4,2.7,1.3,3.6c0.9,0.9,2,1.4,3.5,1.4c1.9,0,3.2-0.8,3.9-2.3c0.2-0.3,0.3-0.6,0.3-0.8
	c0.1-0.2,0.1-0.5,0.1-0.9L83.2,20.9z"/>
<path class="st1" d="M92.2,18.6c0.7,0.7,1,1.6,1,2.6c0,1.1-0.3,2-1,2.7c-0.7,0.7-1.6,1-2.6,1c-1.1,0-2-0.3-2.6-1
	c-0.7-0.7-1-1.6-1-2.7c0-1.1,0.3-2,1-2.6c0.7-0.7,1.6-1,2.7-1C90.7,17.6,91.6,17.9,92.2,18.6z M88.6,19.8c-0.2,0.3-0.4,0.8-0.4,1.5
	c0,0.6,0.1,1.1,0.4,1.5c0.2,0.3,0.6,0.5,1,0.5c0.4,0,0.8-0.2,1-0.5c0.2-0.4,0.4-0.9,0.4-1.5c0-0.6-0.1-1.1-0.4-1.4
	c-0.2-0.3-0.6-0.5-1-0.5C89.2,19.2,88.8,19.4,88.6,19.8z"/>
<path class="st1" d="M98.8,19.7c-0.4-0.1-0.7-0.1-0.9-0.1c-1.1,0-1.7,0.7-1.7,2v3.1h-2.3v-6.9h2.2l0,1.2c0.2-0.5,0.5-0.8,0.9-1
	c0.3-0.2,0.8-0.3,1.3-0.3c0.2,0,0.4,0,0.6,0.1V19.7z"/>
<path class="st1" d="M100.5,21.8c0,0.5,0.2,0.9,0.4,1.2c0.3,0.3,0.7,0.4,1.1,0.4c0.6,0,1-0.3,1.3-0.8h2.1c-0.2,0.7-0.6,1.3-1.2,1.7
	c-0.6,0.4-1.3,0.6-2.2,0.6c-1.1,0-2-0.3-2.7-1c-0.7-0.6-1.1-1.5-1.1-2.6c0-1.1,0.3-2,1-2.7c0.7-0.7,1.6-1,2.7-1c1.1,0,2,0.4,2.7,1.1
	s1,1.7,1,2.9v0.2H100.5z M103,19.5c-0.2-0.2-0.6-0.4-1-0.4c-0.8,0-1.3,0.5-1.5,1.4h2.9C103.4,20,103.3,19.7,103,19.5z"/>
<path class="st0" d="M117.2,17.1H112v1.6h4.7v1.9H112v1.9h5.3v2.1h-7.8v-9.5h7.6V17.1z"/>
<path class="st0" d="M118,15.1h5c0.9,0,1.7,0.2,2.3,0.7c0.6,0.5,0.9,1.2,0.9,2.1c0,1.1-0.5,1.9-1.5,2.3c0.6,0.2,1,0.6,1.2,1.2
	c0.1,0.4,0.2,1.1,0.3,2c0,0,0,0.1,0,0.2c0,0.1,0,0.2,0,0.2c0,0,0,0.1,0,0.2c0,0.1,0,0.1,0,0.2c0,0,0,0.1,0,0.2c0,0.1,0,0.1,0.1,0.2
	c0,0,0.1,0.1,0.1,0.2h-2.5c-0.1-0.2-0.1-0.4-0.2-0.6c0-0.2-0.1-0.5-0.1-0.8c0-0.3,0-0.5,0-0.6c-0.1-0.6-0.2-1-0.5-1.2
	c-0.3-0.2-0.7-0.3-1.2-0.3h-1.5v3.6H118V15.1z M122.3,19.3c0.5,0,0.8-0.1,1.1-0.2c0.3-0.2,0.4-0.5,0.4-0.9c0-0.7-0.5-1.1-1.5-1.1
	h-1.7v2.3H122.3z"/>
<path class="st0" d="M127.1,15.1h4.2c1.2,0,2.1,0.3,2.8,0.8c0.7,0.5,1,1.3,1,2.5c0,1-0.3,1.8-0.9,2.3c-0.6,0.5-1.4,0.8-2.5,0.8h-2.1
	v3.2h-2.5V15.1z M131,19.5c0.3,0,0.5,0,0.6,0c0.2,0,0.3-0.1,0.5-0.1c0.2-0.1,0.3-0.2,0.4-0.4c0.1-0.2,0.1-0.4,0.1-0.6
	c0-0.4-0.1-0.7-0.4-0.9c-0.3-0.2-0.6-0.3-1.1-0.3h-1.6v2.4H131z"/>
<g>
	<path class="st0" d="M54.4,26.5l-1.4,5.2h-0.7l-1.1-4.1c-0.1-0.2-0.1-0.4-0.1-0.5h0l-0.1,0.6l-1.1,3.9h-0.7l-1.4-5.2h0.7l0.8,3.4
		c0.1,0.4,0.2,0.8,0.2,1c0,0,0,0.1,0,0.1h0c0.1-0.4,0.2-0.8,0.2-1l1-3.5h0.8l0.7,2.6c0.2,0.6,0.3,1.3,0.4,1.8h0
		c0-0.3,0.1-0.7,0.2-1.1l0.8-3.3H54.4z"/>
	<path class="st0" d="M57.9,31.7h-0.6v-2.4c0-0.3-0.1-0.5-0.2-0.7c-0.1-0.2-0.3-0.2-0.6-0.2c-0.3,0-0.5,0.1-0.7,0.3
		c-0.2,0.2-0.3,0.5-0.3,1v2h-0.6v-5.2h0.6v1.8c0.3-0.3,0.7-0.5,1.1-0.5c0.2,0,0.5,0,0.7,0.1c0.2,0.1,0.4,0.2,0.5,0.5
		c0.1,0.2,0.1,0.5,0.1,0.9V31.7z"/>
	<path class="st0" d="M62.1,30h-2.8c0,0.4,0.1,0.7,0.4,0.9c0.2,0.2,0.5,0.3,0.8,0.3c0.2,0,0.4-0.1,0.6-0.2c0.2-0.1,0.3-0.3,0.4-0.6
		l0.7,0.1c-0.1,0.4-0.3,0.7-0.6,0.9c-0.3,0.2-0.6,0.3-1.1,0.3c-0.6,0-1-0.2-1.3-0.5c-0.3-0.3-0.5-0.8-0.5-1.4c0-0.6,0.2-1.1,0.5-1.4
		c0.3-0.4,0.7-0.5,1.3-0.5c0.3,0,0.5,0.1,0.8,0.2c0.3,0.1,0.5,0.3,0.6,0.6C62,28.9,62.1,29.4,62.1,30z M61.4,29.5
		c0-0.4-0.1-0.7-0.4-0.8c-0.2-0.2-0.4-0.3-0.7-0.3c-0.3,0-0.5,0.1-0.7,0.3c-0.2,0.2-0.3,0.5-0.3,0.8H61.4z"/>
	<path class="st0" d="M64.8,28.1l-0.2,0.6c-0.2-0.1-0.3-0.1-0.5-0.1c-0.2,0-0.4,0.1-0.5,0.3c-0.1,0.2-0.2,0.5-0.2,0.9v2h-0.6V28h0.6
		v0.6h0c0.2-0.4,0.5-0.6,0.8-0.6C64.4,27.9,64.6,27.9,64.8,28.1z"/>
	<path class="st0" d="M68.4,30h-2.8c0,0.4,0.1,0.7,0.4,0.9c0.2,0.2,0.5,0.3,0.8,0.3c0.2,0,0.4-0.1,0.6-0.2c0.2-0.1,0.3-0.3,0.4-0.6
		l0.7,0.1c-0.1,0.4-0.3,0.7-0.6,0.9s-0.6,0.3-1.1,0.3c-0.6,0-1-0.2-1.3-0.5c-0.3-0.3-0.5-0.8-0.5-1.4c0-0.6,0.2-1.1,0.5-1.4
		c0.3-0.4,0.7-0.5,1.3-0.5c0.3,0,0.5,0.1,0.8,0.2c0.3,0.1,0.5,0.3,0.6,0.6C68.3,28.9,68.4,29.4,68.4,30z M67.7,29.5
		c0-0.4-0.1-0.7-0.4-0.8c-0.2-0.2-0.4-0.3-0.7-0.3c-0.3,0-0.5,0.1-0.7,0.3c-0.2,0.2-0.3,0.5-0.3,0.8H67.7z"/>
	<path class="st0" d="M74,28.9c0.3,0.1,0.6,0.3,0.7,0.5c0.2,0.2,0.2,0.5,0.2,0.8c0,0.3-0.1,0.6-0.2,0.8c-0.1,0.2-0.4,0.4-0.6,0.5
		c-0.3,0.1-0.6,0.2-1.1,0.2h-2v-5.2H73c0.6,0,1.1,0.1,1.3,0.4c0.3,0.3,0.4,0.6,0.4,0.9c0,0.2-0.1,0.4-0.2,0.6
		C74.4,28.7,74.2,28.8,74,28.9z M71.8,28.7h1.1c0.2,0,0.4,0,0.6,0c0.2,0,0.3-0.1,0.4-0.2c0.1-0.1,0.2-0.3,0.2-0.5
		c0-0.2-0.1-0.4-0.2-0.5c-0.1-0.1-0.3-0.2-0.4-0.2c-0.2,0-0.4,0-0.6,0h-1V28.7z M71.8,31.1H73c0.5,0,0.8-0.1,1-0.2
		c0.2-0.2,0.3-0.4,0.3-0.7c0-0.3-0.1-0.5-0.3-0.7c-0.2-0.2-0.5-0.2-1-0.2h-1.2V31.1z"/>
	<path class="st0" d="M78.8,31.7h-0.6v-0.5h0c-0.3,0.4-0.7,0.6-1.2,0.6c-0.3,0-0.5-0.1-0.7-0.2s-0.4-0.3-0.4-0.5
		c-0.1-0.2-0.1-0.5-0.1-0.8V28h0.6V30c0,0.3,0,0.6,0,0.7c0,0.1,0.1,0.3,0.2,0.4c0.1,0.1,0.3,0.1,0.5,0.1c0.2,0,0.5-0.1,0.7-0.2
		s0.3-0.5,0.3-1v-2h0.6V31.7z"/>
	<path class="st0" d="M81.8,29c0-0.2-0.1-0.4-0.2-0.5c-0.1-0.1-0.3-0.2-0.6-0.2c-0.2,0-0.4,0-0.6,0.1c-0.1,0.1-0.2,0.2-0.2,0.4
		c0,0.1,0.1,0.3,0.2,0.3c0.1,0.1,0.4,0.1,0.7,0.2c0.4,0.1,0.7,0.2,0.9,0.3c0.2,0.1,0.3,0.2,0.5,0.3c0.1,0.1,0.2,0.3,0.2,0.6
		c0,0.3-0.1,0.6-0.4,0.8s-0.6,0.3-1.1,0.3c-0.5,0-0.8-0.1-1.1-0.3c-0.3-0.2-0.4-0.5-0.5-0.9l0.6-0.1c0,0.3,0.1,0.5,0.3,0.6
		c0.2,0.1,0.4,0.2,0.7,0.2c0.3,0,0.5-0.1,0.6-0.2c0.1-0.1,0.2-0.3,0.2-0.4c0-0.1,0-0.2-0.1-0.3c-0.1-0.1-0.2-0.1-0.3-0.2
		c-0.1,0-0.3-0.1-0.7-0.2c-0.5-0.1-0.9-0.3-1-0.5c-0.2-0.2-0.3-0.4-0.3-0.6c0-0.3,0.1-0.6,0.4-0.8c0.2-0.2,0.6-0.3,1-0.3
		c0.4,0,0.8,0.1,1,0.3c0.2,0.2,0.4,0.4,0.4,0.8L81.8,29z"/>
	<path class="st0" d="M83.9,27.2h-0.6v-0.7h0.6V27.2z M83.9,31.7h-0.6V28h0.6V31.7z"/>
	<path class="st0" d="M87.9,31.7h-0.6v-2.3c0-0.4-0.1-0.6-0.2-0.8c-0.1-0.1-0.3-0.2-0.6-0.2c-0.2,0-0.4,0-0.5,0.1
		c-0.2,0.1-0.3,0.2-0.4,0.4c-0.1,0.2-0.1,0.4-0.1,0.7v2h-0.6V28h0.6v0.5h0c0.1-0.2,0.3-0.4,0.5-0.5c0.2-0.1,0.4-0.2,0.7-0.2
		c0.2,0,0.4,0,0.6,0.1c0.2,0.1,0.3,0.2,0.5,0.3c0.1,0.1,0.2,0.3,0.2,0.4c0,0.2,0,0.4,0,0.6V31.7z"/>
	<path class="st0" d="M92,30h-2.8c0,0.4,0.1,0.7,0.4,0.9c0.2,0.2,0.5,0.3,0.8,0.3c0.2,0,0.4-0.1,0.6-0.2c0.2-0.1,0.3-0.3,0.4-0.6
		l0.7,0.1c-0.1,0.4-0.3,0.7-0.6,0.9c-0.3,0.2-0.6,0.3-1.1,0.3c-0.6,0-1-0.2-1.3-0.5c-0.3-0.3-0.5-0.8-0.5-1.4c0-0.6,0.2-1.1,0.5-1.4
		c0.3-0.4,0.7-0.5,1.3-0.5c0.3,0,0.5,0.1,0.8,0.2c0.3,0.1,0.5,0.3,0.6,0.6C91.9,28.9,92,29.4,92,30z M91.4,29.5
		c0-0.4-0.1-0.7-0.4-0.8c-0.2-0.2-0.4-0.3-0.7-0.3c-0.3,0-0.5,0.1-0.7,0.3c-0.2,0.2-0.3,0.5-0.3,0.8H91.4z"/>
	<path class="st0" d="M94.8,29c0-0.2-0.1-0.4-0.2-0.5c-0.1-0.1-0.3-0.2-0.6-0.2c-0.2,0-0.4,0-0.6,0.1c-0.1,0.1-0.2,0.2-0.2,0.4
		c0,0.1,0.1,0.3,0.2,0.3c0.1,0.1,0.4,0.1,0.7,0.2c0.4,0.1,0.7,0.2,0.9,0.3c0.2,0.1,0.3,0.2,0.5,0.3c0.1,0.1,0.2,0.3,0.2,0.6
		c0,0.3-0.1,0.6-0.4,0.8s-0.6,0.3-1.1,0.3c-0.5,0-0.8-0.1-1.1-0.3c-0.3-0.2-0.4-0.5-0.5-0.9l0.6-0.1c0,0.3,0.1,0.5,0.3,0.6
		c0.2,0.1,0.4,0.2,0.7,0.2c0.3,0,0.5-0.1,0.6-0.2c0.1-0.1,0.2-0.3,0.2-0.4c0-0.1,0-0.2-0.1-0.3c-0.1-0.1-0.2-0.1-0.3-0.2
		c-0.1,0-0.3-0.1-0.7-0.2c-0.5-0.1-0.9-0.3-1-0.5c-0.2-0.2-0.3-0.4-0.3-0.6c0-0.3,0.1-0.6,0.4-0.8c0.2-0.2,0.6-0.3,1-0.3
		c0.4,0,0.8,0.1,1,0.3c0.2,0.2,0.4,0.4,0.4,0.8L94.8,29z"/>
	<path class="st0" d="M98.4,29c0-0.2-0.1-0.4-0.2-0.5c-0.1-0.1-0.3-0.2-0.6-0.2c-0.2,0-0.4,0-0.6,0.1c-0.1,0.1-0.2,0.2-0.2,0.4
		c0,0.1,0.1,0.3,0.2,0.3c0.1,0.1,0.4,0.1,0.7,0.2c0.4,0.1,0.7,0.2,0.9,0.3c0.2,0.1,0.3,0.2,0.5,0.3c0.1,0.1,0.2,0.3,0.2,0.6
		c0,0.3-0.1,0.6-0.4,0.8s-0.6,0.3-1.1,0.3c-0.5,0-0.8-0.1-1.1-0.3c-0.3-0.2-0.4-0.5-0.5-0.9l0.6-0.1c0,0.3,0.1,0.5,0.3,0.6
		c0.2,0.1,0.4,0.2,0.7,0.2c0.3,0,0.5-0.1,0.6-0.2c0.1-0.1,0.2-0.3,0.2-0.4c0-0.1,0-0.2-0.1-0.3c-0.1-0.1-0.2-0.1-0.3-0.2
		c-0.1,0-0.3-0.1-0.7-0.2c-0.5-0.1-0.9-0.3-1-0.5c-0.2-0.2-0.3-0.4-0.3-0.6c0-0.3,0.1-0.6,0.4-0.8c0.2-0.2,0.6-0.3,1-0.3
		c0.4,0,0.8,0.1,1,0.3c0.2,0.2,0.4,0.4,0.4,0.8L98.4,29z"/>
	<path class="st0" d="M106.4,31.7h-0.9c-0.5-0.8-0.8-1.3-1-1.5c-0.1-0.2-0.3-0.3-0.4-0.5c-0.1-0.1-0.3-0.2-0.4-0.3
		c-0.1,0-0.3-0.1-0.5-0.1h-0.8v2.3h-0.7v-5.2h2.3c0.3,0,0.6,0,0.8,0.1s0.4,0.1,0.6,0.3c0.2,0.1,0.3,0.3,0.4,0.5
		c0.1,0.2,0.1,0.4,0.1,0.6c0,0.4-0.1,0.7-0.4,0.9c-0.2,0.2-0.6,0.4-1.1,0.4v0c0.3,0.2,0.7,0.5,1,0.9L106.4,31.7z M102.5,28.8h1.5
		c0.3,0,0.5,0,0.7-0.1c0.2-0.1,0.3-0.1,0.4-0.3c0.1-0.1,0.2-0.3,0.2-0.5c0-0.2-0.1-0.4-0.3-0.6c-0.2-0.2-0.5-0.2-0.8-0.2h-1.6V28.8z
		"/>
	<path class="st0" d="M109.9,31.7h-0.6v-0.5h0c-0.3,0.4-0.7,0.6-1.2,0.6c-0.3,0-0.5-0.1-0.7-0.2s-0.4-0.3-0.4-0.5
		c-0.1-0.2-0.1-0.5-0.1-0.8V28h0.6V30c0,0.3,0,0.6,0,0.7c0,0.1,0.1,0.3,0.2,0.4c0.1,0.1,0.3,0.1,0.5,0.1c0.2,0,0.5-0.1,0.7-0.2
		c0.2-0.2,0.3-0.5,0.3-1v-2h0.6V31.7z"/>
	<path class="st0" d="M113.9,31.7h-0.6v-2.3c0-0.4-0.1-0.6-0.2-0.8c-0.1-0.1-0.3-0.2-0.6-0.2c-0.2,0-0.4,0-0.5,0.1
		c-0.2,0.1-0.3,0.2-0.4,0.4c-0.1,0.2-0.1,0.4-0.1,0.7v2h-0.6V28h0.6v0.5h0c0.1-0.2,0.3-0.4,0.5-0.5c0.2-0.1,0.4-0.2,0.7-0.2
		c0.2,0,0.4,0,0.6,0.1c0.2,0.1,0.3,0.2,0.5,0.3c0.1,0.1,0.2,0.3,0.2,0.4c0,0.2,0,0.4,0,0.6V31.7z"/>
	<path class="st0" d="M116.9,29c0-0.2-0.1-0.4-0.2-0.5c-0.1-0.1-0.3-0.2-0.6-0.2c-0.2,0-0.4,0-0.6,0.1c-0.1,0.1-0.2,0.2-0.2,0.4
		c0,0.1,0.1,0.3,0.2,0.3c0.1,0.1,0.4,0.1,0.7,0.2c0.4,0.1,0.7,0.2,0.9,0.3c0.2,0.1,0.3,0.2,0.5,0.3c0.1,0.1,0.2,0.3,0.2,0.6
		c0,0.3-0.1,0.6-0.4,0.8s-0.6,0.3-1.1,0.3c-0.5,0-0.8-0.1-1.1-0.3s-0.4-0.5-0.5-0.9l0.6-0.1c0,0.3,0.1,0.5,0.3,0.6
		c0.2,0.1,0.4,0.2,0.7,0.2c0.3,0,0.5-0.1,0.6-0.2c0.1-0.1,0.2-0.3,0.2-0.4c0-0.1,0-0.2-0.1-0.3c-0.1-0.1-0.2-0.1-0.3-0.2
		c-0.1,0-0.3-0.1-0.7-0.2c-0.5-0.1-0.9-0.3-1-0.5c-0.2-0.2-0.3-0.4-0.3-0.6c0-0.3,0.1-0.6,0.4-0.8c0.2-0.2,0.6-0.3,1-0.3
		c0.4,0,0.8,0.1,1,0.3c0.2,0.2,0.4,0.4,0.4,0.8L116.9,29z"/>
	<path class="st0" d="M123.3,28.9c0.3,0.1,0.6,0.3,0.7,0.5c0.2,0.2,0.2,0.5,0.2,0.8c0,0.3-0.1,0.6-0.2,0.8c-0.1,0.2-0.4,0.4-0.6,0.5
		c-0.3,0.1-0.6,0.2-1.1,0.2h-2v-5.2h1.9c0.6,0,1.1,0.1,1.3,0.4c0.3,0.3,0.4,0.6,0.4,0.9c0,0.2-0.1,0.4-0.2,0.6
		C123.7,28.7,123.5,28.8,123.3,28.9z M121.1,28.7h1.1c0.2,0,0.4,0,0.6,0c0.2,0,0.3-0.1,0.4-0.2c0.1-0.1,0.2-0.3,0.2-0.5
		c0-0.2-0.1-0.4-0.2-0.5c-0.1-0.1-0.3-0.2-0.4-0.2c-0.2,0-0.4,0-0.6,0h-1V28.7z M121.1,31.1h1.3c0.5,0,0.8-0.1,1-0.2
		c0.2-0.2,0.3-0.4,0.3-0.7c0-0.3-0.1-0.5-0.3-0.7c-0.2-0.2-0.5-0.2-1-0.2h-1.2V31.1z"/>
	<path class="st0" d="M128.3,30h-2.8c0,0.4,0.1,0.7,0.4,0.9c0.2,0.2,0.5,0.3,0.8,0.3c0.2,0,0.4-0.1,0.6-0.2c0.2-0.1,0.3-0.3,0.4-0.6
		l0.7,0.1c-0.1,0.4-0.3,0.7-0.6,0.9c-0.3,0.2-0.6,0.3-1.1,0.3c-0.6,0-1-0.2-1.3-0.5c-0.3-0.3-0.5-0.8-0.5-1.4c0-0.6,0.2-1.1,0.5-1.4
		c0.3-0.4,0.7-0.5,1.3-0.5c0.3,0,0.5,0.1,0.8,0.2c0.3,0.1,0.5,0.3,0.6,0.6C128.2,28.9,128.3,29.4,128.3,30z M127.7,29.5
		c0-0.4-0.1-0.7-0.4-0.8c-0.2-0.2-0.4-0.3-0.7-0.3c-0.3,0-0.5,0.1-0.7,0.3c-0.2,0.2-0.3,0.5-0.3,0.8H127.7z"/>
	<path class="st0" d="M130.5,31.7c-0.2,0-0.3,0.1-0.5,0.1c-0.3,0-0.5,0-0.6-0.1c-0.1-0.1-0.2-0.2-0.2-0.4c0-0.1,0-0.4,0-0.6v-2.1
		h-0.5V28h0.5V27l0.6-0.4V28h0.6v0.5h-0.6v2.2c0,0.2,0,0.3,0.1,0.4c0,0.1,0.1,0.1,0.3,0.1c0.1,0,0.2,0,0.3,0L130.5,31.7z"/>
	<path class="st0" d="M132.4,31.7c-0.2,0-0.3,0.1-0.5,0.1c-0.3,0-0.5,0-0.6-0.1c-0.1-0.1-0.2-0.2-0.2-0.4c0-0.1,0-0.4,0-0.6v-2.1
		h-0.5V28h0.5V27l0.6-0.4V28h0.6v0.5h-0.6v2.2c0,0.2,0,0.3,0.1,0.4c0,0.1,0.1,0.1,0.3,0.1c0.1,0,0.2,0,0.3,0L132.4,31.7z"/>
	<path class="st0" d="M136.2,30h-2.8c0,0.4,0.1,0.7,0.4,0.9c0.2,0.2,0.5,0.3,0.8,0.3c0.2,0,0.4-0.1,0.6-0.2c0.2-0.1,0.3-0.3,0.4-0.6
		l0.7,0.1c-0.1,0.4-0.3,0.7-0.6,0.9c-0.3,0.2-0.6,0.3-1.1,0.3c-0.6,0-1-0.2-1.3-0.5c-0.3-0.3-0.5-0.8-0.5-1.4c0-0.6,0.2-1.1,0.5-1.4
		c0.3-0.4,0.7-0.5,1.3-0.5c0.3,0,0.5,0.1,0.8,0.2c0.3,0.1,0.5,0.3,0.6,0.6C136.1,28.9,136.2,29.4,136.2,30z M135.5,29.5
		c0-0.4-0.1-0.7-0.4-0.8c-0.2-0.2-0.4-0.3-0.7-0.3c-0.3,0-0.5,0.1-0.7,0.3c-0.2,0.2-0.3,0.5-0.3,0.8H135.5z"/>
	<path class="st0" d="M138.9,28.1l-0.2,0.6c-0.2-0.1-0.3-0.1-0.5-0.1c-0.2,0-0.4,0.1-0.5,0.3c-0.1,0.2-0.2,0.5-0.2,0.9v2h-0.6V28
		h0.6v0.6h0c0.2-0.4,0.5-0.6,0.8-0.6C138.4,27.9,138.7,27.9,138.9,28.1z"/>
	<path class="st0" d="M140.1,31.7h-0.7V31h0.7V31.7z"/>
</g>
<path class="st0" d="M76.4,17.8h-2.3l-1.3,4.6l-1.3-4.6H69l2.4,6.5c0,0.1,0,0.2-0.1,0.3l0,0L71,25.7l2.6-0.1l0.5-1.6l0,0
	c0-0.1,0-0.1,0.1-0.2C75,21.8,75.7,19.8,76.4,17.8z"/>
</svg>
