<?xml version="1.0" encoding="utf-8"?>
<!-- Generator: Adobe Illustrator 26.4.1, SVG Export Plug-In . SVG Version: 6.00 Build 0)  -->
<svg version="1.1" id="Layer_1" xmlns="http://www.w3.org/2000/svg" xmlns:xlink="http://www.w3.org/1999/xlink" x="0px" y="0px"
	 viewBox="0 0 158 55.3" style="enable-background:new 0 0 158 55.3;" xml:space="preserve">
<style type="text/css">
	.st0{fill:#FFFFFF;}
	.st1{fill:#EB7D29;}
</style>
<path class="st0" d="M28.5,31.4c0.8,0.4,1.7,0.7,2.6,0.7c0.3,0,0.6,0,0.9-0.1c0.6-0.1,1.2-0.3,1.7-0.6c0.2-0.1,0.4-0.3,0.7-0.4
	c0.5-0.4,0.9-0.9,1.3-1.5c0.4-0.8,0.7-1.7,0.7-2.6s-0.3-1.8-0.7-2.6c-0.3-0.6-0.8-1.1-1.3-1.5c-0.2-0.2-0.4-0.3-0.7-0.4
	c-0.5-0.3-1.1-0.5-1.7-0.6c-0.3,0-0.6-0.1-0.9-0.1c-1,0-1.8,0.3-2.6,0.7c-0.8,0.5-1.5,1.1-1.9,1.9c-0.4,0.8-0.7,1.7-0.7,2.6
	s0.3,1.8,0.7,2.6C27,30.3,27.7,31,28.5,31.4z M31.1,24.3h0.2c0,0,0,0,0,0c1.3,0.1,2.4,1.2,2.4,2.6s-1.1,2.5-2.4,2.6c0,0,0,0,0,0
	h-0.2c-1.4,0-2.6-1.2-2.6-2.6C28.5,25.4,29.7,24.3,31.1,24.3z"/>
<path class="st1" d="M46.6,24.3C46.6,24.3,46.6,24.3,46.6,24.3c-0.1-0.9-0.4-1.7-0.7-2.6c0,0,0,0,0-0.1c-0.2-0.6-0.5-1.2-0.8-1.8
	c-0.1-0.2-0.2-0.4-0.3-0.5c0-0.1-0.1-0.2-0.1-0.2c-0.2-0.3-0.3-0.6-0.5-0.8c-0.1-0.2-0.3-0.4-0.5-0.7c-0.1-0.2-0.3-0.4-0.4-0.5
	c-0.2-0.2-0.3-0.4-0.5-0.6c-0.2-0.2-0.4-0.5-0.7-0.7l0,0l1.9-1.9h0l1.2-1.2c-0.2-0.2-0.4-0.3-0.7-0.5c-0.3-0.2-0.5-0.4-0.8-0.5
	c-0.3-0.2-0.5-0.3-0.8-0.4l-2,2l-1.6,1.6l-2.7,2.7c0,0,0,0,0,0l-0.4,0.4v0.1c0,0,0,0-0.1,0c-0.5-0.3-1.1-0.6-1.7-0.8
	c-0.3-0.1-0.6-0.2-0.9-0.3c-0.8-0.2-1.7-0.3-2.6-0.3s-1.8,0.1-2.6,0.3c-0.9,0.2-1.8,0.6-2.6,1.1c-0.6,0.3-1.2,0.8-1.7,1.2
	c-0.3,0.3-0.6,0.6-0.9,0.9c-0.5,0.5-0.9,1.1-1.2,1.7c-0.5,0.8-0.8,1.7-1.1,2.6c-0.2,0.8-0.3,1.7-0.3,2.6s0.1,1.8,0.3,2.6
	c0.2,0.9,0.6,1.8,1,2.6c0,0,0,0,0,0.1c0.3,0.6,0.8,1.2,1.2,1.7c0.1,0.1,0.2,0.2,0.3,0.3l1.9-1.9c0,0-0.1-0.1-0.1-0.1
	c-0.5-0.6-1-1.3-1.3-2c-0.1-0.2-0.2-0.4-0.2-0.6c-0.3-0.8-0.4-1.7-0.4-2.6s0.2-1.8,0.4-2.6c0.3-1,0.9-1.9,1.6-2.6
	c0.2-0.2,0.4-0.4,0.6-0.6c0.8-0.7,1.6-1.2,2.6-1.6c0.8-0.3,1.7-0.4,2.6-0.4c0.7,0,1.3,0.1,2,0.2c0.2,0.1,0.4,0.1,0.7,0.2
	c0.2,0.1,0.4,0.2,0.6,0.2c0.4,0.2,0.8,0.4,1.1,0.6c0.3,0.2,0.6,0.4,0.9,0.7c0.1,0.1,0.1,0.1,0.2,0.2l3.7-3.7l0,0l0.1-0.1l0,0
	l-0.1,0.1c0.2,0.2,0.4,0.4,0.6,0.7c0.2,0.3,0.4,0.5,0.7,0.8v0h0c0.1,0.1,0.2,0.3,0.3,0.4c0.2,0.3,0.4,0.6,0.6,0.9
	c0.2,0.4,0.5,0.8,0.7,1.3c0,0,0,0.1,0.1,0.1c0.1,0.3,0.3,0.7,0.4,1c0.2,0.5,0.3,1,0.4,1.5c0.2,0.8,0.3,1.7,0.3,2.6
	c0,0.9-0.1,1.8-0.3,2.6c-0.1,0.5-0.2,1-0.4,1.5c-0.1,0.4-0.3,0.8-0.4,1.1c-0.2,0.4-0.4,0.9-0.7,1.3c-0.3,0.5-0.6,0.9-0.9,1.3h0v0
	c-0.2,0.3-0.4,0.5-0.7,0.8c-0.6,0.7-1.2,1.3-2,1.8h0v0c-0.7,0.6-1.5,1-2.4,1.4c-0.1,0-0.1,0.1-0.2,0.1c-0.8,0.4-1.7,0.6-2.6,0.8
	C32.9,39.9,32,40,31.1,40c-0.7,0-1.5-0.1-2.2-0.2L26.8,42c0.6,0.2,1.1,0.3,1.7,0.4c0.9,0.1,1.7,0.2,2.6,0.2c0.9,0,1.8-0.1,2.6-0.2
	c0.9-0.2,1.8-0.4,2.6-0.7c0.9-0.3,1.8-0.7,2.6-1.2c0.3-0.2,0.6-0.3,0.8-0.5c0.5-0.4,1.1-0.8,1.6-1.2c0.1-0.1,0.1-0.1,0.2-0.2
	c0.4-0.4,0.8-0.8,1.2-1.2c0.2-0.2,0.3-0.4,0.5-0.6c0.3-0.4,0.6-0.8,0.9-1.2c0.2-0.3,0.4-0.5,0.5-0.8c0-0.1,0.1-0.2,0.1-0.2
	c0.4-0.8,0.8-1.5,1.1-2.4c0,0,0,0,0-0.1c0.3-0.8,0.5-1.7,0.7-2.5c0,0,0,0,0,0c0.1-0.8,0.2-1.7,0.2-2.6C46.8,26,46.7,25.1,46.6,24.3z
	"/>
<path class="st1" d="M28.1,36.1c0.1,0,0.3,0.1,0.4,0.1c0.8,0.2,1.7,0.3,2.6,0.3s1.8-0.1,2.6-0.3c0.3-0.1,0.6-0.2,0.9-0.3
	c0.6-0.2,1.2-0.5,1.7-0.8c0.2-0.1,0.4-0.3,0.7-0.4c0.4-0.2,0.7-0.5,1-0.8c0.3-0.3,0.6-0.6,0.9-0.9c0.5-0.5,0.9-1.1,1.2-1.7
	c0.1-0.2,0.2-0.4,0.3-0.6c0.3-0.6,0.6-1.3,0.8-2c0.2-0.8,0.3-1.7,0.3-2.6s-0.1-1.8-0.3-2.6c0-0.1-0.1-0.3-0.1-0.4
	c-0.2-0.6-0.4-1.1-0.6-1.6c-0.1-0.2-0.2-0.4-0.3-0.6c-0.1-0.1-0.1-0.2-0.2-0.3c0,0,0,0,0,0l-1.9,1.9c0.2,0.3,0.3,0.7,0.5,1.1
	c0.2,0.6,0.3,1.2,0.4,1.8c0,0.3,0,0.6,0,0.8c0,0.9-0.2,1.8-0.4,2.6c-0.3,0.7-0.6,1.4-1.1,2c-0.1,0.2-0.3,0.4-0.5,0.6
	c-0.2,0.2-0.4,0.4-0.6,0.6c-0.3,0.2-0.6,0.5-0.9,0.7c-0.5,0.4-1.1,0.7-1.7,0.9c-0.2,0.1-0.4,0.1-0.7,0.2c-0.6,0.2-1.3,0.2-2,0.2
	c-0.3,0-0.6,0-0.8,0c-0.6-0.1-1.2-0.2-1.8-0.4c-0.4-0.1-0.7-0.3-1.1-0.5L25.5,35l-1.3,1.3c0,0,0,0,0,0l-0.6,0.6
	c-0.1-0.1-0.3-0.2-0.4-0.3v0h0c-0.5-0.4-1-0.8-1.5-1.3c-0.4-0.4-0.8-0.8-1.1-1.3v0h0c-0.2-0.3-0.4-0.5-0.5-0.8
	c-0.4-0.6-0.7-1.2-1-1.8c-0.4-0.8-0.6-1.7-0.8-2.6C18.1,27.9,18,27,18,26.1c0-0.9,0.1-1.8,0.3-2.6c0.2-0.9,0.5-1.8,0.8-2.6
	c0.4-0.9,0.9-1.8,1.5-2.6h0v0c0.7-1,1.6-1.9,2.6-2.6h0v0c0.8-0.6,1.7-1.1,2.6-1.5c0.8-0.4,1.7-0.6,2.6-0.8c0.8-0.2,1.7-0.3,2.6-0.3
	c0.9,0,1.8,0.1,2.6,0.3c0.7,0.1,1.4,0.3,2,0.6l2-2c-0.4-0.2-0.9-0.4-1.4-0.6c-0.8-0.3-1.7-0.5-2.6-0.7c-0.9-0.1-1.7-0.2-2.6-0.2
	c-0.9,0-1.8,0.1-2.6,0.2c-0.9,0.2-1.8,0.4-2.6,0.7c-0.9,0.3-1.8,0.7-2.6,1.2c-0.3,0.2-0.6,0.3-0.8,0.5c-0.6,0.4-1.2,0.9-1.8,1.4
	c-0.4,0.4-0.8,0.8-1.2,1.2c-0.5,0.6-1,1.2-1.4,1.8c-0.2,0.3-0.4,0.5-0.5,0.8c-0.5,0.8-0.9,1.7-1.2,2.6c-0.3,0.8-0.5,1.7-0.7,2.6
	c-0.1,0.9-0.2,1.7-0.2,2.6c0,0.9,0.1,1.8,0.2,2.6c0.2,0.9,0.4,1.8,0.7,2.6c0.3,0.9,0.7,1.8,1.2,2.6c0.2,0.3,0.3,0.6,0.5,0.8
	c0.1,0.1,0.1,0.2,0.2,0.3c0.4,0.5,0.8,1,1.2,1.5c0.2,0.2,0.3,0.4,0.5,0.5c0.2,0.2,0.5,0.5,0.7,0.7c0.4,0.3,0.7,0.6,1.1,0.9
	c0,0,0,0,0,0l-1.1,1.1l-0.3,0.3l-1.9,1.9c0.2,0.2,0.4,0.3,0.7,0.5c0.3,0.2,0.5,0.4,0.8,0.5c0.3,0.2,0.5,0.3,0.8,0.4l2-2l1.4-1.4
	l1.8-1.8l1.6-1.6L28.1,36.1z"/>
<path d="M76,26.9"/>
<path class="st0" d="M65,24.6c-0.4-0.1-0.7-0.1-0.9-0.1c-1.1,0-1.7,0.7-1.7,2v3.1h-2.3v-6.9h2.2l0,1.2c0.2-0.5,0.5-0.8,0.9-1
	c0.3-0.2,0.8-0.3,1.3-0.3c0.2,0,0.4,0,0.6,0.1V24.6z"/>
<path class="st0" d="M71.5,24.8c0-0.5,0-0.8-0.1-1.1c-0.1-0.3-0.3-0.5-0.5-0.7c-0.6-0.4-1.4-0.6-2.5-0.6c-2.1,0-3.2,0.8-3.3,2.3h2.1
	c0.1-0.3,0.2-0.6,0.4-0.7c0.2-0.1,0.4-0.2,0.8-0.2c0.7,0,1.1,0.2,1.1,0.7c0,0.3-0.1,0.5-0.4,0.6c-0.1,0-0.6,0.1-1.5,0.3
	c-0.4,0.1-0.7,0.1-0.9,0.1c-0.2,0-0.5,0.1-0.8,0.2c-0.3,0.1-0.5,0.2-0.7,0.4c-0.2,0.1-0.3,0.3-0.4,0.6c-0.1,0.3-0.2,0.5-0.2,0.9
	c0,0.7,0.2,1.2,0.6,1.6c0.4,0.4,1,0.6,1.8,0.6c0.9,0,1.7-0.3,2.3-0.9c0,0.2,0,0.5,0.1,0.7h1h1.3c-0.2-0.4-0.3-1.1-0.3-2V24.8z
	 M69.3,27c0,0.4-0.1,0.8-0.4,1c-0.3,0.2-0.6,0.4-1,0.4c-0.3,0-0.5-0.1-0.7-0.2C67.1,28,67,27.8,67,27.6c0-0.4,0.3-0.7,0.8-0.8
	c0.1,0,0.2,0,0.4-0.1c0.2,0,0.3-0.1,0.4-0.1c0.1,0,0.2,0,0.3-0.1c0.1,0,0.3-0.1,0.4-0.1V27z"/>
<path class="st0" d="M59.2,29.6h-1.6l-0.1-1c-0.4,0.5-0.9,0.8-1.3,1c-0.4,0.2-1,0.3-1.7,0.3c-1.3,0-2.4-0.4-3.3-1.3
	c-0.8-0.9-1.2-2.1-1.2-3.5c0-1.5,0.4-2.8,1.3-3.7c0.9-0.9,2.1-1.4,3.5-1.4c1.2,0,2.1,0.3,2.9,0.9c0.8,0.6,1.2,1.5,1.3,2.6h-2.4
	c-0.3-0.9-0.9-1.4-1.8-1.4c-0.5,0-1,0.1-1.3,0.4c-0.4,0.3-0.6,0.6-0.7,1.1c-0.1,0.4-0.2,0.9-0.2,1.4c0,0.9,0.2,1.6,0.6,2.1
	c0.4,0.5,1,0.8,1.8,0.8c0.6,0,1-0.1,1.3-0.4c0.3-0.3,0.5-0.7,0.6-1.2h-1.7v-1.8h4L59.2,29.6z"/>
<path class="st1" d="M85.7,25.8c-0.2,1.2-0.8,1.8-1.9,1.8c-0.7,0-1.2-0.3-1.6-0.8c-0.4-0.5-0.6-1.2-0.6-2.1c0-0.9,0.2-1.6,0.6-2.1
	c0.4-0.5,0.9-0.8,1.6-0.8c1,0,1.7,0.5,1.9,1.5h2.5c-0.1-1.1-0.5-2-1.4-2.6c-0.8-0.7-1.8-1-2.9-1c-1.4,0-2.6,0.5-3.5,1.4
	c-0.9,0.9-1.3,2.1-1.3,3.6c0,1.5,0.4,2.7,1.3,3.6c0.9,0.9,2,1.4,3.5,1.4c1.9,0,3.2-0.8,3.9-2.3c0.2-0.3,0.3-0.6,0.3-0.8
	c0.1-0.2,0.1-0.5,0.1-0.9L85.7,25.8z"/>
<path class="st1" d="M94.7,23.5c0.7,0.7,1,1.6,1,2.6c0,1.1-0.3,2-1,2.7c-0.7,0.7-1.6,1-2.6,1c-1.1,0-2-0.3-2.6-1
	c-0.7-0.7-1-1.6-1-2.7c0-1.1,0.3-2,1-2.6c0.7-0.7,1.6-1,2.7-1C93.2,22.4,94.1,22.8,94.7,23.5z M91.1,24.6c-0.2,0.3-0.4,0.8-0.4,1.5
	c0,0.6,0.1,1.1,0.4,1.5c0.2,0.3,0.6,0.5,1,0.5c0.4,0,0.8-0.2,1-0.5c0.2-0.4,0.4-0.9,0.4-1.5c0-0.6-0.1-1.1-0.4-1.4
	c-0.2-0.3-0.6-0.5-1-0.5C91.7,24.1,91.3,24.3,91.1,24.6z"/>
<path class="st1" d="M101.3,24.6c-0.4-0.1-0.7-0.1-0.9-0.1c-1.1,0-1.7,0.7-1.7,2v3.1h-2.3v-6.9h2.2l0,1.2c0.2-0.5,0.5-0.8,0.9-1
	c0.3-0.2,0.8-0.3,1.3-0.3c0.2,0,0.4,0,0.6,0.1V24.6z"/>
<path class="st1" d="M103,26.7c0,0.5,0.2,0.9,0.4,1.2c0.3,0.3,0.7,0.4,1.1,0.4c0.6,0,1-0.3,1.3-0.8h2.1c-0.2,0.7-0.6,1.3-1.2,1.7
	c-0.6,0.4-1.3,0.6-2.2,0.6c-1.1,0-2-0.3-2.7-1c-0.7-0.6-1.1-1.5-1.1-2.6c0-1.1,0.3-2,1-2.7c0.7-0.7,1.6-1,2.7-1c1.1,0,2,0.4,2.7,1.1
	c0.7,0.7,1,1.7,1,2.9v0.2H103z M105.5,24.4c-0.2-0.2-0.6-0.4-1-0.4c-0.8,0-1.3,0.5-1.5,1.4h2.9C105.9,24.9,105.8,24.6,105.5,24.4z"
	/>
<path class="st0" d="M119.7,22h-5.2v1.6h4.7v1.9h-4.7v1.9h5.3v2.1H112V20h7.6V22z"/>
<path class="st0" d="M120.5,20h5c0.9,0,1.7,0.2,2.3,0.7c0.6,0.5,0.9,1.2,0.9,2.1c0,1.1-0.5,1.9-1.5,2.3c0.6,0.2,1,0.6,1.2,1.2
	c0.1,0.4,0.2,1.1,0.3,2c0,0,0,0.1,0,0.2c0,0.1,0,0.2,0,0.2c0,0,0,0.1,0,0.2c0,0.1,0,0.1,0,0.2c0,0,0,0.1,0,0.2c0,0.1,0,0.1,0.1,0.2
	c0,0,0.1,0.1,0.1,0.2h-2.5c-0.1-0.2-0.1-0.4-0.2-0.6c0-0.2-0.1-0.5-0.1-0.8c0-0.3,0-0.5,0-0.6c-0.1-0.6-0.2-1-0.5-1.2
	c-0.3-0.2-0.7-0.3-1.2-0.3H123v3.6h-2.5V20z M124.8,24.2c0.5,0,0.8-0.1,1.1-0.2c0.3-0.2,0.4-0.5,0.4-0.9c0-0.7-0.5-1.1-1.5-1.1H123
	v2.3H124.8z"/>
<path class="st0" d="M129.6,20h4.2c1.2,0,2.1,0.3,2.8,0.8c0.7,0.5,1,1.3,1,2.5c0,1-0.3,1.8-0.9,2.3c-0.6,0.5-1.4,0.8-2.5,0.8h-2.1
	v3.2h-2.5V20z M133.5,24.4c0.3,0,0.5,0,0.6,0c0.2,0,0.3-0.1,0.5-0.1c0.2-0.1,0.3-0.2,0.4-0.4c0.1-0.2,0.1-0.4,0.1-0.6
	c0-0.4-0.1-0.7-0.4-0.9c-0.3-0.2-0.6-0.3-1.1-0.3h-1.6v2.4H133.5z"/>
<g>
	<path class="st0" d="M56.9,31.4l-1.4,5.2h-0.7l-1.1-4.1c-0.1-0.2-0.1-0.4-0.1-0.5h0l-0.1,0.6l-1.1,3.9h-0.7l-1.4-5.2h0.7l0.8,3.4
		c0.1,0.4,0.2,0.8,0.2,1c0,0,0,0.1,0,0.1h0c0.1-0.4,0.2-0.8,0.2-1l1-3.5H54l0.7,2.6c0.2,0.6,0.3,1.3,0.4,1.8h0
		c0-0.3,0.1-0.7,0.2-1.1l0.8-3.3H56.9z"/>
	<path class="st0" d="M60.4,36.6h-0.6v-2.4c0-0.3-0.1-0.5-0.2-0.7c-0.1-0.2-0.3-0.2-0.6-0.2c-0.3,0-0.5,0.1-0.7,0.3
		c-0.2,0.2-0.3,0.5-0.3,1v2h-0.6v-5.2H58v1.8c0.3-0.3,0.7-0.5,1.1-0.5c0.2,0,0.5,0,0.7,0.1s0.4,0.2,0.5,0.5c0.1,0.2,0.1,0.5,0.1,0.9
		V36.6z"/>
	<path class="st0" d="M64.6,34.9h-2.8c0,0.4,0.1,0.7,0.4,0.9c0.2,0.2,0.5,0.3,0.8,0.3c0.2,0,0.4-0.1,0.6-0.2
		c0.2-0.1,0.3-0.3,0.4-0.6l0.7,0.1c-0.1,0.4-0.3,0.7-0.6,0.9c-0.3,0.2-0.6,0.3-1.1,0.3c-0.6,0-1-0.2-1.3-0.5
		c-0.3-0.3-0.5-0.8-0.5-1.4c0-0.6,0.2-1.1,0.5-1.4c0.3-0.4,0.7-0.5,1.3-0.5c0.3,0,0.5,0.1,0.8,0.2c0.3,0.1,0.5,0.3,0.6,0.6
		C64.5,33.8,64.6,34.3,64.6,34.9z M63.9,34.3c0-0.4-0.1-0.7-0.4-0.8c-0.2-0.2-0.4-0.3-0.7-0.3c-0.3,0-0.5,0.1-0.7,0.3
		c-0.2,0.2-0.3,0.5-0.3,0.8H63.9z"/>
	<path class="st0" d="M67.3,33l-0.2,0.6c-0.2-0.1-0.3-0.1-0.5-0.1c-0.2,0-0.4,0.1-0.5,0.3c-0.1,0.2-0.2,0.5-0.2,0.9v2h-0.6v-3.7h0.6
		v0.6h0c0.2-0.4,0.5-0.6,0.8-0.6C66.9,32.8,67.1,32.8,67.3,33z"/>
	<path class="st0" d="M70.9,34.9h-2.8c0,0.4,0.1,0.7,0.4,0.9c0.2,0.2,0.5,0.3,0.8,0.3c0.2,0,0.4-0.1,0.6-0.2
		c0.2-0.1,0.3-0.3,0.4-0.6l0.7,0.1c-0.1,0.4-0.3,0.7-0.6,0.9c-0.3,0.2-0.6,0.3-1.1,0.3c-0.6,0-1-0.2-1.3-0.5
		c-0.3-0.3-0.5-0.8-0.5-1.4c0-0.6,0.2-1.1,0.5-1.4c0.3-0.4,0.7-0.5,1.3-0.5c0.3,0,0.5,0.1,0.8,0.2c0.3,0.1,0.5,0.3,0.6,0.6
		C70.8,33.8,70.9,34.3,70.9,34.9z M70.2,34.3c0-0.4-0.1-0.7-0.4-0.8c-0.2-0.2-0.4-0.3-0.7-0.3c-0.3,0-0.5,0.1-0.7,0.3
		c-0.2,0.2-0.3,0.5-0.3,0.8H70.2z"/>
	<path class="st0" d="M76.5,33.8c0.3,0.1,0.6,0.3,0.7,0.5c0.2,0.2,0.2,0.5,0.2,0.8c0,0.3-0.1,0.6-0.2,0.8c-0.1,0.2-0.4,0.4-0.6,0.5
		c-0.3,0.1-0.6,0.2-1.1,0.2h-2v-5.2h1.9c0.6,0,1.1,0.1,1.3,0.4c0.3,0.3,0.4,0.6,0.4,0.9c0,0.2-0.1,0.4-0.2,0.6
		C76.9,33.6,76.7,33.7,76.5,33.8z M74.3,33.6h1.1c0.2,0,0.4,0,0.6,0c0.2,0,0.3-0.1,0.4-0.2c0.1-0.1,0.2-0.3,0.2-0.5
		c0-0.2-0.1-0.4-0.2-0.5c-0.1-0.1-0.3-0.2-0.4-0.2c-0.2,0-0.4,0-0.6,0h-1V33.6z M74.3,36h1.3c0.5,0,0.8-0.1,1-0.2
		c0.2-0.2,0.3-0.4,0.3-0.7c0-0.3-0.1-0.5-0.3-0.7c-0.2-0.2-0.5-0.2-1-0.2h-1.2V36z"/>
	<path class="st0" d="M81.3,36.6h-0.6V36h0c-0.3,0.4-0.7,0.6-1.2,0.6c-0.3,0-0.5-0.1-0.7-0.2c-0.2-0.1-0.4-0.3-0.4-0.5
		c-0.1-0.2-0.1-0.5-0.1-0.8v-2.3h0.6v2.1c0,0.3,0,0.6,0,0.7c0,0.1,0.1,0.3,0.2,0.4c0.1,0.1,0.3,0.1,0.5,0.1c0.2,0,0.5-0.1,0.7-0.2
		c0.2-0.2,0.3-0.5,0.3-1v-2h0.6V36.6z"/>
	<path class="st0" d="M84.3,33.9c0-0.2-0.1-0.4-0.2-0.5c-0.1-0.1-0.3-0.2-0.6-0.2c-0.2,0-0.4,0-0.6,0.1c-0.1,0.1-0.2,0.2-0.2,0.4
		c0,0.1,0.1,0.3,0.2,0.3c0.1,0.1,0.4,0.1,0.7,0.2c0.4,0.1,0.7,0.2,0.9,0.3c0.2,0.1,0.3,0.2,0.5,0.3c0.1,0.1,0.2,0.3,0.2,0.6
		c0,0.3-0.1,0.6-0.4,0.8s-0.6,0.3-1.1,0.3c-0.5,0-0.8-0.1-1.1-0.3c-0.3-0.2-0.4-0.5-0.5-0.9l0.6-0.1c0,0.3,0.1,0.5,0.3,0.6
		c0.2,0.1,0.4,0.2,0.7,0.2c0.3,0,0.5-0.1,0.6-0.2c0.1-0.1,0.2-0.3,0.2-0.4c0-0.1,0-0.2-0.1-0.3c-0.1-0.1-0.2-0.1-0.3-0.2
		c-0.1,0-0.3-0.1-0.7-0.2c-0.5-0.1-0.9-0.3-1-0.5c-0.2-0.2-0.3-0.4-0.3-0.6c0-0.3,0.1-0.6,0.4-0.8c0.2-0.2,0.6-0.3,1-0.3
		c0.4,0,0.8,0.1,1,0.3c0.2,0.2,0.4,0.4,0.4,0.8L84.3,33.9z"/>
	<path class="st0" d="M86.4,32.1h-0.6v-0.7h0.6V32.1z M86.4,36.6h-0.6v-3.7h0.6V36.6z"/>
	<path class="st0" d="M90.4,36.6h-0.6v-2.3c0-0.4-0.1-0.6-0.2-0.8c-0.1-0.1-0.3-0.2-0.6-0.2c-0.2,0-0.4,0-0.5,0.1
		c-0.2,0.1-0.3,0.2-0.4,0.4C88,34,88,34.2,88,34.5v2h-0.6v-3.7h0.6v0.5h0c0.1-0.2,0.3-0.4,0.5-0.5c0.2-0.1,0.4-0.2,0.7-0.2
		c0.2,0,0.4,0,0.6,0.1c0.2,0.1,0.3,0.2,0.5,0.3s0.2,0.3,0.2,0.4c0,0.2,0,0.4,0,0.6V36.6z"/>
	<path class="st0" d="M94.5,34.9h-2.8c0,0.4,0.1,0.7,0.4,0.9c0.2,0.2,0.5,0.3,0.8,0.3c0.2,0,0.4-0.1,0.6-0.2
		c0.2-0.1,0.3-0.3,0.4-0.6l0.7,0.1c-0.1,0.4-0.3,0.7-0.6,0.9c-0.3,0.2-0.6,0.3-1.1,0.3c-0.6,0-1-0.2-1.3-0.5
		c-0.3-0.3-0.5-0.8-0.5-1.4c0-0.6,0.2-1.1,0.5-1.4c0.3-0.4,0.7-0.5,1.3-0.5c0.3,0,0.5,0.1,0.8,0.2c0.3,0.1,0.5,0.3,0.6,0.6
		C94.4,33.8,94.5,34.3,94.5,34.9z M93.9,34.3c0-0.4-0.1-0.7-0.4-0.8c-0.2-0.2-0.4-0.3-0.7-0.3c-0.3,0-0.5,0.1-0.7,0.3
		c-0.2,0.2-0.3,0.5-0.3,0.8H93.9z"/>
	<path class="st0" d="M97.3,33.9c0-0.2-0.1-0.4-0.2-0.5c-0.1-0.1-0.3-0.2-0.6-0.2c-0.2,0-0.4,0-0.6,0.1c-0.1,0.1-0.2,0.2-0.2,0.4
		c0,0.1,0.1,0.3,0.2,0.3c0.1,0.1,0.4,0.1,0.7,0.2c0.4,0.1,0.7,0.2,0.9,0.3c0.2,0.1,0.3,0.2,0.5,0.3c0.1,0.1,0.2,0.3,0.2,0.6
		c0,0.3-0.1,0.6-0.4,0.8s-0.6,0.3-1.1,0.3c-0.5,0-0.8-0.1-1.1-0.3c-0.3-0.2-0.4-0.5-0.5-0.9l0.6-0.1c0,0.3,0.1,0.5,0.3,0.6
		c0.2,0.1,0.4,0.2,0.7,0.2c0.3,0,0.5-0.1,0.6-0.2c0.1-0.1,0.2-0.3,0.2-0.4c0-0.1,0-0.2-0.1-0.3c-0.1-0.1-0.2-0.1-0.3-0.2
		c-0.1,0-0.3-0.1-0.7-0.2c-0.5-0.1-0.9-0.3-1-0.5c-0.2-0.2-0.3-0.4-0.3-0.6c0-0.3,0.1-0.6,0.4-0.8c0.2-0.2,0.6-0.3,1-0.3
		c0.4,0,0.8,0.1,1,0.3c0.2,0.2,0.4,0.4,0.4,0.8L97.3,33.9z"/>
	<path class="st0" d="M100.9,33.9c0-0.2-0.1-0.4-0.2-0.5c-0.1-0.1-0.3-0.2-0.6-0.2c-0.2,0-0.4,0-0.6,0.1c-0.1,0.1-0.2,0.2-0.2,0.4
		c0,0.1,0.1,0.3,0.2,0.3c0.1,0.1,0.4,0.1,0.7,0.2c0.4,0.1,0.7,0.2,0.9,0.3c0.2,0.1,0.3,0.2,0.5,0.3c0.1,0.1,0.2,0.3,0.2,0.6
		c0,0.3-0.1,0.6-0.4,0.8s-0.6,0.3-1.1,0.3c-0.5,0-0.8-0.1-1.1-0.3c-0.3-0.2-0.4-0.5-0.5-0.9l0.6-0.1c0,0.3,0.1,0.5,0.3,0.6
		c0.2,0.1,0.4,0.2,0.7,0.2c0.3,0,0.5-0.1,0.6-0.2c0.1-0.1,0.2-0.3,0.2-0.4c0-0.1,0-0.2-0.1-0.3c-0.1-0.1-0.2-0.1-0.3-0.2
		c-0.1,0-0.3-0.1-0.7-0.2c-0.5-0.1-0.9-0.3-1-0.5c-0.2-0.2-0.3-0.4-0.3-0.6c0-0.3,0.1-0.6,0.4-0.8c0.2-0.2,0.6-0.3,1-0.3
		c0.4,0,0.8,0.1,1,0.3c0.2,0.2,0.4,0.4,0.4,0.8L100.9,33.9z"/>
	<path class="st0" d="M108.9,36.6H108c-0.5-0.8-0.8-1.3-1-1.5c-0.1-0.2-0.3-0.3-0.4-0.5c-0.1-0.1-0.3-0.2-0.4-0.3
		c-0.1,0-0.3-0.1-0.5-0.1H105v2.3h-0.7v-5.2h2.3c0.3,0,0.6,0,0.8,0.1s0.4,0.1,0.6,0.3c0.2,0.1,0.3,0.3,0.4,0.5
		c0.1,0.2,0.1,0.4,0.1,0.6c0,0.4-0.1,0.7-0.4,0.9c-0.2,0.2-0.6,0.4-1.1,0.4v0c0.3,0.2,0.7,0.5,1,0.9L108.9,36.6z M105,33.7h1.5
		c0.3,0,0.5,0,0.7-0.1c0.2-0.1,0.3-0.1,0.4-0.3c0.1-0.1,0.2-0.3,0.2-0.5c0-0.2-0.1-0.4-0.3-0.6c-0.2-0.2-0.5-0.2-0.8-0.2H105V33.7z"
		/>
	<path class="st0" d="M112.4,36.6h-0.6V36h0c-0.3,0.4-0.7,0.6-1.2,0.6c-0.3,0-0.5-0.1-0.7-0.2c-0.2-0.1-0.4-0.3-0.4-0.5
		c-0.1-0.2-0.1-0.5-0.1-0.8v-2.3h0.6v2.1c0,0.3,0,0.6,0,0.7c0,0.1,0.1,0.3,0.2,0.4c0.1,0.1,0.3,0.1,0.5,0.1c0.2,0,0.5-0.1,0.7-0.2
		c0.2-0.2,0.3-0.5,0.3-1v-2h0.6V36.6z"/>
	<path class="st0" d="M116.4,36.6h-0.6v-2.3c0-0.4-0.1-0.6-0.2-0.8c-0.1-0.1-0.3-0.2-0.6-0.2c-0.2,0-0.4,0-0.5,0.1
		c-0.2,0.1-0.3,0.2-0.4,0.4c-0.1,0.2-0.1,0.4-0.1,0.7v2h-0.6v-3.7h0.6v0.5h0c0.1-0.2,0.3-0.4,0.5-0.5c0.2-0.1,0.4-0.2,0.7-0.2
		c0.2,0,0.4,0,0.6,0.1c0.2,0.1,0.3,0.2,0.5,0.3c0.1,0.1,0.2,0.3,0.2,0.4c0,0.2,0,0.4,0,0.6V36.6z"/>
	<path class="st0" d="M119.4,33.9c0-0.2-0.1-0.4-0.2-0.5c-0.1-0.1-0.3-0.2-0.6-0.2c-0.2,0-0.4,0-0.6,0.1c-0.1,0.1-0.2,0.2-0.2,0.4
		c0,0.1,0.1,0.3,0.2,0.3c0.1,0.1,0.4,0.1,0.7,0.2c0.4,0.1,0.7,0.2,0.9,0.3c0.2,0.1,0.3,0.2,0.5,0.3c0.1,0.1,0.2,0.3,0.2,0.6
		c0,0.3-0.1,0.6-0.4,0.8s-0.6,0.3-1.1,0.3c-0.5,0-0.8-0.1-1.1-0.3s-0.4-0.5-0.5-0.9l0.6-0.1c0,0.3,0.1,0.5,0.3,0.6
		c0.2,0.1,0.4,0.2,0.7,0.2c0.3,0,0.5-0.1,0.6-0.2c0.1-0.1,0.2-0.3,0.2-0.4c0-0.1,0-0.2-0.1-0.3c-0.1-0.1-0.2-0.1-0.3-0.2
		c-0.1,0-0.3-0.1-0.7-0.2c-0.5-0.1-0.9-0.3-1-0.5c-0.2-0.2-0.3-0.4-0.3-0.6c0-0.3,0.1-0.6,0.4-0.8c0.2-0.2,0.6-0.3,1-0.3
		c0.4,0,0.8,0.1,1,0.3c0.2,0.2,0.4,0.4,0.4,0.8L119.4,33.9z"/>
	<path class="st0" d="M125.8,33.8c0.3,0.1,0.6,0.3,0.7,0.5c0.2,0.2,0.2,0.5,0.2,0.8c0,0.3-0.1,0.6-0.2,0.8c-0.1,0.2-0.4,0.4-0.6,0.5
		c-0.3,0.1-0.6,0.2-1.1,0.2h-2v-5.2h1.9c0.6,0,1.1,0.1,1.3,0.4c0.3,0.3,0.4,0.6,0.4,0.9c0,0.2-0.1,0.4-0.2,0.6
		C126.2,33.6,126,33.7,125.8,33.8z M123.6,33.6h1.1c0.2,0,0.4,0,0.6,0c0.2,0,0.3-0.1,0.4-0.2c0.1-0.1,0.2-0.3,0.2-0.5
		c0-0.2-0.1-0.4-0.2-0.5c-0.1-0.1-0.3-0.2-0.4-0.2c-0.2,0-0.4,0-0.6,0h-1V33.6z M123.6,36h1.3c0.5,0,0.8-0.1,1-0.2
		c0.2-0.2,0.3-0.4,0.3-0.7c0-0.3-0.1-0.5-0.3-0.7c-0.2-0.2-0.5-0.2-1-0.2h-1.2V36z"/>
	<path class="st0" d="M130.8,34.9H128c0,0.4,0.1,0.7,0.4,0.9c0.2,0.2,0.5,0.3,0.8,0.3c0.2,0,0.4-0.1,0.6-0.2
		c0.2-0.1,0.3-0.3,0.4-0.6l0.7,0.1c-0.1,0.4-0.3,0.7-0.6,0.9c-0.3,0.2-0.6,0.3-1.1,0.3c-0.6,0-1-0.2-1.3-0.5
		c-0.3-0.3-0.5-0.8-0.5-1.4c0-0.6,0.2-1.1,0.5-1.4c0.3-0.4,0.7-0.5,1.3-0.5c0.3,0,0.5,0.1,0.8,0.2c0.3,0.1,0.5,0.3,0.6,0.6
		C130.7,33.8,130.8,34.3,130.8,34.9z M130.2,34.3c0-0.4-0.1-0.7-0.4-0.8c-0.2-0.2-0.4-0.3-0.7-0.3c-0.3,0-0.5,0.1-0.7,0.3
		c-0.2,0.2-0.3,0.5-0.3,0.8H130.2z"/>
	<path class="st0" d="M133,36.6c-0.2,0-0.3,0.1-0.5,0.1c-0.3,0-0.5,0-0.6-0.1c-0.1-0.1-0.2-0.2-0.2-0.4c0-0.1,0-0.4,0-0.6v-2.1h-0.5
		v-0.5h0.5v-0.9l0.6-0.4v1.3h0.6v0.5h-0.6v2.2c0,0.2,0,0.3,0.1,0.4c0,0.1,0.1,0.1,0.3,0.1c0.1,0,0.2,0,0.3,0L133,36.6z"/>
	<path class="st0" d="M134.9,36.6c-0.2,0-0.3,0.1-0.5,0.1c-0.3,0-0.5,0-0.6-0.1c-0.1-0.1-0.2-0.2-0.2-0.4c0-0.1,0-0.4,0-0.6v-2.1
		h-0.5v-0.5h0.5v-0.9l0.6-0.4v1.3h0.6v0.5h-0.6v2.2c0,0.2,0,0.3,0.1,0.4c0,0.1,0.1,0.1,0.3,0.1c0.1,0,0.2,0,0.3,0L134.9,36.6z"/>
	<path class="st0" d="M138.7,34.9h-2.8c0,0.4,0.1,0.7,0.4,0.9c0.2,0.2,0.5,0.3,0.8,0.3c0.2,0,0.4-0.1,0.6-0.2
		c0.2-0.1,0.3-0.3,0.4-0.6l0.7,0.1c-0.1,0.4-0.3,0.7-0.6,0.9c-0.3,0.2-0.6,0.3-1.1,0.3c-0.6,0-1-0.2-1.3-0.5
		c-0.3-0.3-0.5-0.8-0.5-1.4c0-0.6,0.2-1.1,0.5-1.4c0.3-0.4,0.7-0.5,1.3-0.5c0.3,0,0.5,0.1,0.8,0.2c0.3,0.1,0.5,0.3,0.6,0.6
		C138.6,33.8,138.7,34.3,138.7,34.9z M138,34.3c0-0.4-0.1-0.7-0.4-0.8c-0.2-0.2-0.4-0.3-0.7-0.3c-0.3,0-0.5,0.1-0.7,0.3
		c-0.2,0.2-0.3,0.5-0.3,0.8H138z"/>
	<path class="st0" d="M141.4,33l-0.2,0.6c-0.2-0.1-0.3-0.1-0.5-0.1c-0.2,0-0.4,0.1-0.5,0.3c-0.1,0.2-0.2,0.5-0.2,0.9v2h-0.6v-3.7
		h0.6v0.6h0c0.2-0.4,0.5-0.6,0.8-0.6C140.9,32.8,141.2,32.8,141.4,33z"/>
	<path class="st0" d="M142.6,36.6h-0.7v-0.7h0.7V36.6z"/>
</g>
<path class="st0" d="M78.9,22.6h-2.3l-1.3,4.6l-1.3-4.6h-2.4l2.4,6.5c0,0.1,0,0.2-0.1,0.3l0,0l-0.3,1.2l2.6-0.1l0.5-1.6l0,0
	c0-0.1,0-0.1,0.1-0.2C77.5,26.7,78.2,24.7,78.9,22.6z"/>
</svg>
